<?xml version="1.0" encoding="UTF-8"?> <svg xmlns="http://www.w3.org/2000/svg" width="637pt" height="792pt" viewBox="0 0 637 792" version="1.1"><g id="#ffffffff"><path fill="#ffffff" opacity="1.00" d=" M 184.98 344.40 C 188.89 343.29 191.06 347.22 193.28 349.66 C 195.56 352.98 198.71 355.49 201.81 358.00 C 195.97 353.76 190.39 349.16 184.98 344.40 Z"></path></g><g id="#888785ff"><path fill="#888785" opacity="1.00" d=" M 99.59 45.66 C 141.63 19.16 190.59 4.39 240.02 0.75 C 252.33 0.11 264.67 0.44 277.00 0.39 C 286.66 0.30 296.29 1.19 305.88 2.33 C 311.51 2.97 317.17 4.40 322.86 3.49 C 335.49 1.62 348.23 0.28 361.01 0.38 C 373.01 0.44 385.02 0.11 397.01 0.76 C 437.18 3.71 476.92 14.14 512.99 32.15 C 542.20 46.83 569.06 66.66 590.38 91.54 C 611.89 116.52 627.67 146.80 633.72 179.34 C 634.96 187.08 636.84 194.75 637.00 202.63 L 637.00 218.45 C 635.94 224.08 635.08 229.75 634.75 235.48 C 630.28 268.50 615.24 299.55 594.38 325.32 C 573.14 351.52 545.90 372.56 515.99 387.99 C 479.26 406.91 438.56 417.74 397.43 420.93 C 372.15 423.40 346.65 421.75 321.58 417.99 C 315.62 417.22 309.77 419.23 303.85 419.61 C 257.01 425.55 208.98 420.44 164.07 406.10 C 130.26 395.02 98.13 378.13 70.99 355.00 C 44.88 332.88 23.46 304.78 11.08 272.75 C 5.09 256.99 0.93 240.37 0.00 223.49 L 0.00 197.45 C 1.49 175.80 7.73 154.59 17.10 135.06 C 35.06 97.98 64.95 67.54 99.59 45.66 M 109.07 53.09 C 71.33 76.68 39.22 111.12 23.37 153.16 C 12.32 182.29 9.81 214.60 16.47 245.05 C 24.19 281.36 44.73 314.10 71.46 339.51 C 106.90 373.16 152.70 394.66 200.26 404.70 C 228.70 410.51 257.99 412.85 286.93 410.41 C 264.18 404.62 242.27 395.58 221.66 384.35 C 191.51 367.68 164.25 345.20 143.87 317.29 C 149.40 317.39 154.98 316.90 160.48 317.49 C 166.33 325.57 172.57 333.44 180.11 340.01 C 181.78 341.33 184.08 340.53 186.02 340.51 C 180.42 333.10 175.64 325.12 170.77 317.22 C 172.10 317.25 173.42 317.29 174.75 317.33 C 179.59 325.11 184.57 332.83 189.75 340.38 C 194.40 341.24 199.32 340.51 204.08 340.69 C 200.07 332.77 195.48 325.17 191.45 317.25 C 192.33 317.24 194.08 317.22 194.96 317.22 C 199.71 324.81 203.52 332.99 208.28 340.56 C 214.56 340.96 220.88 340.60 227.18 340.70 C 225.13 332.41 220.11 325.26 217.74 317.09 C 218.95 317.48 220.99 316.78 221.61 318.29 C 225.19 325.62 227.91 333.35 231.47 340.69 C 239.23 340.60 247.01 341.02 254.75 340.45 C 252.78 332.66 250.02 325.10 247.96 317.34 C 249.09 317.28 250.22 317.23 251.36 317.18 C 253.84 324.97 255.95 332.88 258.62 340.61 C 267.40 340.83 276.18 340.59 284.96 340.74 C 283.69 332.96 282.47 325.16 281.41 317.36 C 282.57 317.30 283.73 317.25 284.90 317.20 C 285.68 325.08 287.06 332.91 288.46 340.69 C 297.55 340.74 306.64 340.71 315.74 340.72 C 315.92 332.85 315.64 324.98 315.90 317.12 C 317.09 317.43 319.89 316.72 319.36 318.95 C 319.49 326.18 319.32 333.42 319.40 340.66 C 328.66 340.79 337.91 340.68 347.17 340.72 C 348.72 332.93 349.79 325.05 351.09 317.21 C 352.26 317.26 353.43 317.32 354.61 317.38 C 352.92 325.07 352.00 332.92 351.02 340.73 C 359.56 340.59 368.12 340.94 376.65 340.58 C 377.87 338.96 378.35 336.95 378.92 335.05 C 380.51 329.06 382.65 323.24 384.31 317.27 C 385.49 317.28 386.68 317.31 387.87 317.33 C 385.61 325.13 382.82 332.79 381.18 340.74 C 388.92 340.64 396.66 340.82 404.40 340.65 C 407.62 332.84 411.07 325.14 414.33 317.35 C 415.57 317.31 416.82 317.27 418.08 317.24 C 415.07 325.20 411.09 332.75 408.07 340.71 C 414.55 340.71 421.04 340.77 427.52 340.71 C 431.81 332.94 436.14 325.19 440.54 317.48 C 441.74 317.30 442.96 317.18 444.19 317.14 C 440.57 325.27 435.32 332.61 431.76 340.75 C 436.51 340.84 441.26 340.78 446.01 340.81 C 450.47 333.40 455.35 326.25 460.04 318.99 C 460.90 316.93 463.14 317.29 464.98 317.18 C 460.15 325.16 454.93 332.90 449.89 340.75 C 452.94 340.66 456.77 341.80 458.94 338.95 C 465.21 332.41 469.85 324.53 475.24 317.29 C 481.49 317.25 487.74 317.20 493.99 317.32 C 482.65 332.65 469.31 346.49 454.46 358.47 C 424.46 382.88 388.89 399.91 351.73 410.25 C 356.79 411.01 361.88 411.48 367.00 411.31 C 420.38 412.16 474.38 399.60 520.66 372.64 C 550.16 355.35 576.47 331.99 595.16 303.20 C 613.58 275.15 624.08 241.66 623.33 208.01 C 622.88 172.70 610.07 138.09 589.18 109.80 C 569.78 83.17 543.81 61.74 515.07 45.86 C 473.54 23.00 426.23 11.43 378.96 10.39 C 369.90 10.56 360.78 9.91 351.78 11.17 C 355.90 12.22 359.78 14.02 363.90 15.10 C 413.64 30.92 460.20 59.93 492.06 101.78 C 485.51 101.91 478.95 101.88 472.40 101.77 C 469.61 97.24 466.13 93.20 463.30 88.70 C 461.63 86.43 460.19 83.81 457.82 82.21 C 455.33 81.53 452.70 81.89 450.16 81.80 C 450.65 83.23 451.27 84.63 452.18 85.86 C 455.79 91.08 459.17 96.46 462.54 101.84 C 461.16 101.81 459.79 101.78 458.43 101.75 C 454.33 94.89 449.87 88.24 445.38 81.63 C 440.88 82.45 436.31 82.12 431.78 82.25 C 434.62 89.09 439.09 95.08 442.05 101.86 C 440.78 101.84 439.51 101.81 438.25 101.79 C 435.02 95.16 431.04 88.95 427.66 82.40 C 421.15 81.94 414.57 82.18 408.03 82.21 C 410.76 88.83 413.64 95.39 416.64 101.89 C 415.31 101.85 413.99 101.82 412.67 101.78 C 409.75 95.10 407.10 88.31 403.99 81.72 C 396.46 82.28 388.85 82.59 381.34 81.67 C 381.33 82.86 381.28 84.07 381.69 85.22 C 383.41 90.75 384.90 96.36 386.75 101.85 C 385.59 101.83 384.44 101.76 383.29 101.63 C 380.44 95.15 379.75 87.84 376.34 81.62 C 368.20 82.60 359.92 82.23 351.75 81.77 C 351.53 82.06 351.09 82.63 350.87 82.92 C 351.73 89.22 353.21 95.45 353.55 101.80 C 352.47 101.80 351.40 101.80 350.33 101.80 C 349.21 95.05 349.01 87.98 346.52 81.57 C 337.60 82.58 328.49 82.48 319.56 81.63 C 319.06 88.34 319.68 95.09 319.20 101.82 C 318.37 101.82 316.72 101.84 315.89 101.84 C 315.52 95.13 316.19 88.38 315.49 81.68 C 306.54 82.31 297.54 81.89 288.62 82.47 C 286.74 88.56 286.68 95.10 285.32 101.34 C 284.28 101.72 283.24 102.06 282.18 102.35 C 282.48 95.39 284.22 88.61 284.91 81.69 C 276.59 82.53 268.19 82.29 259.85 81.84 C 258.40 81.95 258.21 83.62 257.77 84.68 C 256.10 90.40 254.20 96.06 252.53 101.79 C 251.36 101.81 250.18 101.83 249.01 101.84 C 250.95 95.31 253.11 88.85 254.80 82.24 C 248.18 81.99 241.56 82.49 234.95 81.94 C 233.60 81.91 231.68 81.34 231.08 83.04 C 228.10 89.17 226.01 95.73 222.77 101.72 C 221.54 101.81 220.30 101.80 219.07 101.68 C 222.00 95.09 225.47 88.66 227.44 81.70 C 221.25 82.22 214.97 82.61 208.80 81.66 C 204.66 88.13 201.13 94.97 197.42 101.69 C 196.05 101.76 194.69 101.82 193.32 101.87 C 197.02 95.37 200.70 88.85 204.17 82.23 C 199.49 82.45 194.69 81.77 190.13 82.05 C 185.33 88.38 181.68 95.54 176.80 101.80 C 175.59 101.82 174.39 101.76 173.19 101.63 C 177.29 94.95 182.00 88.64 185.76 81.76 C 183.47 81.96 180.89 81.47 178.88 82.81 C 172.49 88.21 168.06 95.37 162.95 101.88 C 157.25 101.79 151.55 101.95 145.86 101.76 C 159.52 83.58 176.24 67.80 194.61 54.44 C 221.91 34.81 252.91 20.43 285.33 11.62 C 279.99 10.25 274.47 10.35 269.01 10.38 C 213.18 9.59 156.69 23.54 109.07 53.09 M 285.80 25.77 C 283.17 27.27 280.16 28.18 277.96 30.36 C 280.40 30.52 282.84 30.55 285.29 30.55 C 287.99 26.74 292.99 25.09 295.10 20.91 C 291.82 22.16 288.86 24.08 285.80 25.77 M 300.26 22.24 C 297.20 25.11 293.53 27.25 290.74 30.40 C 293.91 30.52 297.08 30.50 300.26 30.46 C 302.01 27.30 304.10 24.35 306.00 21.28 C 304.09 21.45 301.73 20.65 300.26 22.24 M 310.43 21.58 C 308.12 24.20 306.20 27.24 304.82 30.47 C 308.44 30.51 312.06 30.48 315.68 30.47 C 315.72 27.40 315.72 24.33 315.68 21.26 C 313.94 21.33 312.12 21.05 310.43 21.58 M 319.41 21.32 C 319.35 24.36 319.35 27.41 319.39 30.45 C 323.29 30.48 327.19 30.51 331.10 30.47 C 329.47 27.37 327.75 24.27 325.50 21.57 C 323.55 20.97 321.43 21.37 319.41 21.32 M 329.79 21.11 C 331.38 24.48 333.71 27.41 335.72 30.53 C 338.88 30.51 342.04 30.50 345.21 30.39 C 342.22 27.44 338.73 25.08 335.48 22.43 C 333.95 20.96 331.72 21.27 329.79 21.11 M 340.07 21.05 C 343.41 24.79 347.66 27.50 351.58 30.56 C 354.07 30.50 356.57 30.41 359.07 30.29 C 352.53 27.64 346.78 23.23 340.07 21.05 M 266.86 30.28 C 268.82 30.28 271.21 31.35 272.88 29.91 C 275.42 27.79 278.07 25.80 281.01 24.26 C 276.37 26.45 271.26 27.55 266.86 30.28 M 353.96 24.18 C 357.28 25.65 360.58 27.21 363.48 29.43 C 365.62 31.32 368.54 30.51 371.09 30.25 C 365.51 27.88 359.63 26.31 353.96 24.18 M 235.98 51.13 C 240.01 51.30 244.06 51.22 248.10 51.24 C 250.85 47.98 253.88 44.94 257.11 42.15 C 260.05 39.67 263.26 37.33 265.24 33.94 C 262.79 33.84 260.35 33.81 257.91 33.78 C 250.83 39.86 242.92 44.91 235.98 51.13 M 257.11 47.07 C 255.75 48.25 254.55 49.61 253.65 51.17 C 258.11 51.25 262.57 51.31 267.04 51.23 C 268.76 51.53 269.92 50.12 270.77 48.86 C 274.20 43.90 277.96 39.15 281.24 34.08 C 277.79 33.77 274.33 33.80 270.88 33.80 C 266.04 37.96 261.84 42.79 257.11 47.07 M 279.18 43.16 C 277.37 45.79 274.85 48.06 274.00 51.25 C 279.35 51.18 284.70 51.28 290.05 51.23 C 291.07 51.26 292.44 51.06 292.66 49.82 C 294.74 44.55 296.59 39.20 298.48 33.87 C 294.27 33.83 290.07 33.84 285.87 33.84 C 283.59 36.91 281.39 40.03 279.18 43.16 M 302.28 33.98 C 300.09 39.68 297.88 45.39 296.13 51.24 C 302.60 51.24 309.08 51.20 315.55 51.27 C 315.92 45.50 315.62 39.73 315.75 33.96 C 311.26 33.77 306.76 33.74 302.28 33.98 M 319.46 33.83 C 319.35 39.62 319.39 45.41 319.42 51.20 C 326.01 51.13 332.62 51.41 339.20 51.08 C 339.69 49.27 338.35 47.62 337.88 45.94 C 336.24 42.21 335.43 38.13 333.49 34.53 C 329.07 32.99 324.10 34.26 319.46 33.83 M 337.80 34.24 C 338.63 40.09 341.77 45.61 343.70 51.27 C 349.87 51.17 356.03 51.29 362.20 51.19 C 359.31 46.44 355.61 42.24 352.61 37.56 C 351.44 36.00 350.34 33.68 348.02 33.89 C 344.62 33.84 341.14 33.50 337.80 34.24 M 354.80 33.87 C 357.20 38.98 361.09 43.14 364.22 47.78 C 365.42 49.31 366.66 51.56 368.96 51.23 C 373.58 51.29 378.21 51.24 382.83 51.15 C 377.09 45.22 370.80 39.83 365.07 33.87 C 361.64 33.83 358.22 33.81 354.80 33.87 M 370.10 33.91 C 375.59 40.12 381.84 45.63 387.89 51.28 C 391.69 51.19 395.50 51.28 399.30 51.17 C 398.51 50.12 397.68 49.08 396.59 48.33 C 390.63 43.98 384.90 39.32 378.96 34.96 C 376.41 33.04 373.02 34.04 370.10 33.91 M 384.90 35.16 C 392.04 40.40 398.89 46.05 406.10 51.22 C 408.78 51.26 411.47 51.27 414.16 51.14 C 412.62 49.38 410.39 48.63 408.44 47.47 C 401.00 42.72 393.59 37.36 384.90 35.16 M 222.74 51.14 C 225.45 51.23 228.21 51.48 230.91 51.01 C 236.49 45.49 243.15 41.27 249.02 36.07 C 240.08 40.70 230.21 44.25 222.74 51.14 M 409.02 54.57 C 415.64 62.72 422.60 70.60 429.28 78.70 C 433.82 78.63 438.36 78.68 442.90 78.60 C 438.57 75.11 435.22 70.64 431.25 66.79 C 427.14 62.60 422.99 58.46 418.71 54.46 C 415.47 54.48 412.24 54.46 409.02 54.57 M 200.67 70.62 C 198.30 73.22 195.14 75.28 193.76 78.62 C 198.21 78.66 202.67 78.66 207.13 78.60 C 212.68 69.93 220.47 62.92 226.49 54.57 C 223.02 54.47 219.55 54.47 216.08 54.66 C 211.70 60.65 205.85 65.35 200.67 70.62 M 211.12 78.43 C 217.22 78.75 223.37 78.83 229.46 78.48 C 234.80 70.53 240.17 62.57 245.49 54.59 C 240.65 54.46 235.81 54.47 230.98 54.57 C 224.73 62.82 217.60 70.36 211.12 78.43 M 233.86 78.58 C 240.25 78.70 246.65 78.60 253.05 78.66 C 254.14 78.45 255.92 79.00 256.49 77.69 C 260.46 70.16 263.56 62.20 267.36 54.58 C 261.49 54.50 255.62 54.57 249.75 54.50 C 244.45 62.52 238.80 70.33 233.86 78.58 M 260.24 78.46 C 268.67 78.87 277.12 78.48 285.55 78.69 C 287.40 70.64 289.18 62.57 291.27 54.58 C 284.51 54.57 277.74 54.42 270.98 54.66 C 267.48 62.63 263.63 70.45 260.24 78.46 M 294.88 54.60 C 293.09 62.58 290.92 70.47 289.22 78.46 C 298.03 78.85 306.87 78.53 315.69 78.64 C 315.73 70.77 315.88 62.88 315.66 55.01 L 315.25 54.61 C 308.46 54.42 301.67 54.56 294.88 54.60 M 319.41 78.61 C 328.50 78.52 337.60 78.79 346.69 78.46 C 344.43 70.63 342.81 62.63 340.96 54.69 C 333.79 54.43 326.62 54.68 319.45 54.55 C 319.33 62.57 319.39 70.59 319.41 78.61 M 344.55 54.59 C 346.60 62.62 348.06 70.80 350.53 78.71 C 358.92 78.43 367.32 78.91 375.70 78.44 C 371.71 70.57 368.55 62.29 364.44 54.48 C 357.81 54.60 351.18 54.45 344.55 54.59 M 368.70 54.58 C 371.94 62.74 375.91 70.58 379.47 78.61 C 386.98 78.61 394.48 78.73 401.99 78.55 C 396.79 70.49 391.27 62.64 386.08 54.58 C 380.29 54.52 374.49 54.53 368.70 54.58 M 390.20 54.59 C 394.89 61.91 400.07 68.90 404.72 76.24 C 405.44 77.00 405.80 78.54 407.05 78.56 C 412.88 78.79 418.73 78.55 424.57 78.64 C 418.03 70.42 411.10 62.50 404.30 54.49 C 399.60 54.54 394.90 54.48 390.20 54.59 M 426.21 56.93 C 432.50 63.92 439.47 70.25 446.02 76.99 C 448.02 79.77 451.66 78.35 454.52 78.44 C 445.37 70.89 436.30 63.21 426.21 56.93 M 183.90 78.52 C 185.68 78.51 187.56 78.96 189.28 78.37 C 193.46 72.89 198.81 68.46 202.98 62.97 C 196.31 67.72 189.45 72.47 183.90 78.52 M 184.98 344.40 C 190.39 349.16 195.97 353.76 201.81 358.00 C 198.71 355.49 195.56 352.98 193.28 349.66 C 191.06 347.22 188.89 343.29 184.98 344.40 M 192.99 344.38 C 198.31 349.96 204.35 354.86 209.17 360.91 C 211.56 363.46 213.82 366.35 216.98 367.98 C 220.06 368.46 223.20 368.18 226.30 368.13 C 220.93 361.04 214.76 354.62 209.29 347.62 C 208.23 346.45 207.29 344.96 205.76 344.40 C 201.51 344.06 197.24 344.34 192.99 344.38 M 210.89 344.41 C 217.04 351.56 223.32 358.59 229.15 366.01 C 230.06 367.15 231.28 368.37 232.90 368.18 C 236.96 368.29 241.03 368.34 245.06 367.85 C 239.92 359.94 234.50 352.22 229.38 344.30 C 223.22 344.32 217.05 344.14 210.89 344.41 M 233.81 344.35 C 238.44 351.62 243.33 358.72 247.98 365.98 C 248.63 366.86 249.23 368.13 250.52 368.12 C 255.87 368.36 261.24 368.10 266.59 368.19 C 266.13 364.67 264.08 361.70 262.69 358.53 C 260.66 353.83 258.54 349.17 256.19 344.63 C 248.81 343.82 241.26 344.47 233.81 344.35 M 259.95 344.52 C 263.75 351.74 266.55 359.43 270.29 366.68 C 270.86 368.24 272.65 368.27 274.04 368.25 C 279.69 368.24 285.33 368.24 290.98 368.20 C 289.63 360.12 287.22 352.27 285.58 344.26 C 277.04 344.26 268.46 343.79 259.95 344.52 M 289.20 344.48 C 290.91 352.22 293.04 359.86 294.68 367.62 C 301.63 368.69 308.72 368.09 315.72 368.00 C 315.65 360.11 315.73 352.21 315.68 344.32 C 306.85 344.36 298.02 344.06 289.20 344.48 M 319.43 344.34 C 319.33 352.16 319.46 359.97 319.34 367.79 C 326.57 367.91 333.80 367.92 341.03 367.77 C 342.78 359.99 344.37 352.14 346.69 344.51 C 337.61 344.09 328.51 344.33 319.43 344.34 M 350.46 344.23 C 348.10 351.90 347.10 359.95 344.44 367.53 C 347.88 368.59 351.50 368.11 355.05 368.18 C 358.45 368.12 361.95 368.57 365.27 367.53 C 368.01 359.56 372.70 352.38 375.17 344.30 C 366.93 344.25 358.70 344.35 350.46 344.23 M 379.59 344.27 C 376.05 352.23 371.88 359.95 369.03 368.19 C 374.73 368.17 380.43 368.18 386.14 368.16 C 391.55 360.37 396.46 352.22 402.04 344.54 C 394.57 343.94 387.07 344.45 379.59 344.27 M 406.26 344.32 C 402.20 350.60 398.07 356.83 393.78 362.96 C 392.62 364.58 391.67 366.33 390.96 368.19 C 395.26 368.14 399.56 368.34 403.85 368.12 C 405.26 368.10 405.98 366.70 406.79 365.77 C 410.49 360.85 414.66 356.30 418.59 351.57 C 420.51 349.19 422.98 347.20 424.24 344.34 C 418.24 344.23 412.25 344.26 406.26 344.32 M 428.67 344.30 C 423.19 352.87 415.24 359.58 409.76 368.13 C 413.74 367.74 419.22 369.90 421.77 365.74 C 427.95 357.97 436.32 352.20 442.29 344.28 C 437.75 344.22 433.21 344.28 428.67 344.30 M 446.37 344.54 C 441.16 351.09 435.08 356.89 429.35 362.98 C 436.75 356.50 445.88 351.90 452.24 344.28 C 450.29 344.29 448.27 343.99 446.37 344.54 M 222.76 371.71 C 229.39 376.47 236.96 379.61 244.25 383.17 C 239.78 379.46 235.20 375.87 230.54 372.39 C 228.36 370.58 225.31 371.73 222.76 371.71 M 235.72 371.47 C 237.23 373.93 239.91 375.17 242.11 376.89 C 246.61 380.36 251.13 383.79 255.60 387.29 C 258.24 389.59 261.98 388.44 265.14 388.54 C 259.53 382.61 253.38 377.21 247.63 371.42 C 243.66 371.45 239.69 371.38 235.72 371.47 M 252.83 371.48 C 254.48 374.04 257.19 375.59 259.34 377.68 C 263.10 381.29 266.70 385.05 270.47 388.65 C 274.01 388.67 277.54 388.69 281.08 388.57 C 277.03 382.83 273.08 376.90 268.58 371.55 C 263.34 371.24 258.07 371.49 252.83 371.48 M 273.16 371.69 C 277.23 377.30 281.42 382.85 285.26 388.63 C 289.71 388.65 294.17 388.77 298.62 388.49 C 296.20 382.97 294.30 377.25 292.25 371.59 C 285.89 371.39 279.51 371.23 273.16 371.69 M 295.98 371.44 C 297.59 377.33 300.03 382.96 302.12 388.69 C 306.68 388.63 311.23 388.65 315.79 388.68 C 315.74 382.93 315.87 377.18 315.70 371.44 C 309.12 371.44 302.55 371.44 295.98 371.44 M 319.41 371.49 C 319.29 377.21 319.47 382.93 319.31 388.65 C 324.12 388.59 328.94 388.62 333.76 388.60 C 335.48 382.85 338.08 377.41 339.72 371.64 C 332.95 371.30 326.18 371.51 319.41 371.49 M 343.65 371.46 C 341.43 377.08 339.43 382.78 337.32 388.45 C 341.66 388.78 346.02 388.63 350.37 388.63 C 354.00 382.69 358.99 377.64 362.16 371.45 C 355.99 371.43 349.82 371.44 343.65 371.46 M 366.55 371.43 C 362.87 377.36 358.63 382.94 354.34 388.44 C 358.08 388.77 361.84 388.71 365.59 388.60 C 369.29 384.99 372.88 381.27 376.56 377.65 C 378.53 375.64 381.04 374.05 382.26 371.43 C 377.02 371.41 371.79 371.44 366.55 371.43 M 387.42 371.57 C 382.48 377.96 376.00 382.88 370.31 388.56 C 373.02 388.65 375.74 388.66 378.45 388.61 C 385.30 383.35 391.95 377.79 399.13 373.00 C 399.28 372.62 399.59 371.85 399.74 371.46 C 395.63 371.54 391.51 371.20 387.42 371.57 M 404.86 371.65 C 399.59 376.79 393.61 381.11 387.99 385.85 C 396.52 381.36 406.07 378.20 413.25 371.57 C 410.46 371.49 407.61 371.08 404.86 371.65 M 265.19 391.79 C 268.34 394.30 272.44 394.46 276.11 395.76 C 272.54 394.12 269.46 390.86 265.19 391.79 M 275.49 392.54 C 282.70 394.57 288.45 399.95 295.79 401.55 C 292.61 398.90 289.31 396.41 286.13 393.78 C 283.26 390.98 279.00 392.54 275.49 392.54 M 289.83 392.32 C 293.66 395.46 297.66 398.39 301.47 401.56 C 302.96 401.56 304.46 401.56 305.97 401.56 C 303.82 398.55 302.10 395.23 299.78 392.36 C 296.48 391.97 293.14 392.24 289.83 392.32 M 304.01 392.52 C 306.25 395.46 308.25 398.57 310.32 401.63 C 312.11 401.60 313.89 401.58 315.68 401.57 C 315.72 398.46 315.73 395.36 315.71 392.26 C 311.80 392.19 307.89 392.05 304.01 392.52 M 319.40 392.25 C 319.37 395.36 319.37 398.47 319.42 401.58 C 321.39 401.55 323.41 401.80 325.36 401.36 C 327.70 398.61 329.65 395.53 331.26 392.30 C 327.30 392.18 323.35 392.21 319.40 392.25 M 335.55 392.27 C 333.96 395.54 331.54 398.31 329.99 401.60 C 331.48 401.59 332.98 401.57 334.48 401.55 C 338.02 398.21 342.08 395.52 345.77 392.37 C 342.37 392.16 338.96 392.16 335.55 392.27 M 350.46 392.49 C 348.78 394.12 347.25 395.92 345.31 397.26 C 343.74 398.60 341.45 399.55 341.07 401.82 C 347.18 399.08 352.76 395.31 358.87 392.59 C 356.09 392.40 353.18 391.68 350.46 392.49 M 357.89 396.78 C 361.73 395.53 365.68 394.50 369.22 392.49 C 364.60 390.74 361.36 394.51 357.89 396.78 Z"></path><path fill="#888785" opacity="1.00" d=" M 309.46 441.59 C 316.99 439.42 324.82 448.68 320.73 455.66 C 317.71 462.44 307.05 463.04 303.30 456.63 C 299.27 451.15 303.20 443.12 309.46 441.59 Z"></path><path fill="#888785" opacity="1.00" d=" M 80.43 445.47 C 81.00 444.29 81.58 443.12 82.17 441.96 C 82.64 445.79 84.84 448.94 87.86 451.23 C 85.03 453.73 82.85 456.87 82.29 460.68 C 81.55 459.53 80.95 458.29 80.45 457.03 C 78.14 458.70 75.09 460.52 72.33 458.64 C 68.84 456.38 65.92 453.28 62.04 451.61 C 65.93 449.84 68.84 446.66 72.35 444.35 C 75.01 442.60 78.09 443.84 80.43 445.47 Z"></path><path fill="#888785" opacity="1.00" d=" M 541.15 442.05 C 541.89 443.22 542.61 444.43 543.34 445.63 C 545.38 443.82 548.35 442.27 550.97 443.94 C 554.47 446.21 557.46 449.23 561.18 451.22 C 557.52 453.06 554.62 456.01 551.24 458.26 C 548.66 459.92 545.47 458.99 543.18 457.31 C 542.52 458.43 541.85 459.54 541.21 460.67 C 540.98 456.81 538.58 453.77 535.64 451.51 C 538.45 449.01 540.60 445.84 541.15 442.05 Z"></path><path fill="#888785" opacity="1.00" d=" M 91.31 447.21 C 94.03 445.40 97.88 447.88 98.00 450.97 C 98.14 454.21 94.01 456.92 91.21 454.93 C 88.22 453.39 88.29 448.67 91.31 447.21 Z"></path><path fill="#888785" opacity="1.00" d=" M 528.38 447.48 C 531.22 446.12 534.84 448.85 534.48 451.96 C 534.41 455.43 529.56 457.62 527.11 454.94 C 524.43 452.98 525.43 448.59 528.38 447.48 Z"></path><path fill="#888785" opacity="1.00" d=" M 147.36 483.52 C 151.11 480.63 157.12 484.33 156.30 488.97 C 155.79 493.33 149.82 495.53 146.70 492.39 C 143.81 490.11 144.25 485.37 147.36 483.52 Z"></path><path fill="#888785" opacity="1.00" d=" M 98.04 497.05 C 102.88 487.56 114.87 482.77 125.00 485.75 C 127.36 486.42 129.64 487.35 131.92 488.26 C 131.91 493.46 132.45 498.73 131.68 503.89 C 130.22 505.09 128.07 504.24 126.32 504.43 C 125.88 499.68 124.48 494.50 120.24 491.75 C 116.04 488.59 108.90 489.79 106.85 494.91 C 105.06 498.52 106.74 502.84 109.33 505.60 C 115.87 512.31 124.68 516.24 131.26 522.91 C 134.99 526.74 135.32 532.74 133.68 537.60 C 130.97 544.46 124.61 549.45 117.69 551.65 C 110.14 553.78 102.09 552.16 95.00 549.18 C 95.09 543.09 94.90 537.01 95.14 530.93 C 96.86 530.83 98.59 530.76 100.31 530.68 C 100.98 535.05 101.53 539.83 104.86 543.11 C 108.87 548.01 117.06 549.14 121.80 544.68 C 125.75 540.81 125.81 533.99 122.07 529.96 C 115.78 523.36 107.14 519.64 100.59 513.34 C 96.36 509.16 95.33 502.32 98.04 497.05 Z"></path><path fill="#888785" opacity="1.00" d=" M 321.06 494.41 C 329.12 491.36 337.12 488.14 345.21 485.16 C 347.04 484.17 348.28 487.50 346.74 488.38 C 345.34 489.63 343.14 490.67 343.31 492.89 C 343.08 508.27 343.32 523.66 343.20 539.04 C 343.32 541.20 342.93 543.67 344.27 545.55 C 346.58 546.95 349.36 546.76 351.95 546.97 C 351.94 548.28 351.93 549.60 351.92 550.93 C 343.58 551.08 335.24 550.96 326.90 551.02 C 325.49 551.20 323.70 550.75 324.02 548.93 C 323.74 545.93 327.68 547.19 329.54 546.42 C 332.39 546.32 333.23 543.31 333.10 540.96 C 333.14 527.30 333.13 513.63 333.10 499.97 C 333.33 498.23 332.36 496.85 331.04 495.88 C 328.01 496.65 325.05 498.00 321.91 498.20 C 320.99 497.14 321.21 495.68 321.06 494.41 Z"></path><path fill="#888785" opacity="1.00" d=" M 369.23 501.02 C 373.14 489.28 387.12 482.04 398.96 485.85 C 406.63 488.28 412.10 495.33 414.02 502.96 C 417.43 516.49 414.54 531.76 405.54 542.57 C 400.73 548.33 393.68 552.69 385.99 552.60 C 381.52 552.59 376.52 551.86 373.03 548.92 C 372.72 542.88 372.97 536.83 372.97 530.79 C 374.82 530.80 376.69 530.83 378.55 530.89 C 378.59 536.10 379.38 541.94 383.41 545.68 C 387.57 549.21 393.96 547.00 397.08 543.11 C 403.33 535.48 404.71 525.12 404.35 515.56 C 397.75 521.22 388.65 524.66 380.03 522.02 C 371.38 519.65 366.42 509.40 369.23 501.02 M 387.37 490.61 C 384.05 491.60 381.85 494.68 380.76 497.83 C 379.04 502.95 379.21 509.11 382.51 513.58 C 385.64 517.90 392.42 519.16 396.60 515.61 C 401.50 511.49 402.04 504.28 400.63 498.43 C 399.18 492.96 393.08 488.25 387.37 490.61 Z"></path><path fill="#888785" opacity="1.00" d=" M 429.73 492.76 C 434.90 487.28 442.45 484.17 449.98 484.39 C 455.17 484.30 460.68 485.78 464.40 489.56 C 467.43 492.68 467.55 497.77 465.36 501.39 C 462.43 506.47 457.26 509.61 452.79 513.18 C 458.02 516.11 463.64 518.69 467.93 523.00 C 473.01 528.17 472.27 537.28 467.22 542.22 C 460.87 548.50 452.00 552.55 442.95 552.05 C 436.13 552.38 428.60 550.32 424.38 544.61 C 420.78 540.04 421.01 533.07 424.60 528.57 C 428.42 523.62 434.08 520.64 439.26 517.35 C 434.45 514.48 428.26 512.01 426.51 506.14 C 424.83 501.52 426.44 496.25 429.73 492.76 M 435.69 499.95 C 437.15 505.98 443.61 508.22 448.46 510.94 C 452.57 507.11 457.60 502.37 456.49 496.15 C 455.36 490.29 448.01 488.61 442.99 489.91 C 438.47 490.66 434.34 495.23 435.69 499.95 M 432.91 536.01 C 433.25 545.03 444.56 548.96 452.03 546.08 C 458.83 544.22 463.73 535.10 458.86 529.10 C 454.73 524.83 448.78 523.09 443.91 519.84 C 438.47 523.52 431.86 528.54 432.91 536.01 Z"></path><path fill="#888785" opacity="1.00" d=" M 485.29 494.39 C 490.45 488.03 498.81 484.51 506.97 484.94 C 512.00 484.85 517.35 486.40 520.92 490.09 C 524.09 493.35 523.95 498.75 521.57 502.42 C 518.51 507.18 513.63 510.30 509.23 513.68 C 514.52 516.56 520.15 519.19 524.46 523.52 C 529.56 528.67 528.80 537.78 523.73 542.70 C 517.52 548.91 508.84 552.86 499.97 552.60 C 493.20 552.86 485.71 551.15 481.29 545.63 C 477.43 541.26 477.29 534.34 480.67 529.66 C 484.43 524.35 490.39 521.29 495.74 517.86 C 492.05 515.74 488.11 513.83 485.19 510.66 C 481.33 506.11 481.54 498.94 485.29 494.39 M 499.60 490.38 C 494.83 491.14 490.55 496.06 492.34 500.99 C 494.09 506.65 500.25 508.78 504.93 511.44 C 508.99 507.68 513.90 503.15 513.06 497.03 C 512.27 490.96 504.68 489.08 499.60 490.38 M 489.41 537.08 C 490.77 547.93 506.50 550.67 513.54 543.57 C 517.75 539.91 518.90 532.47 514.39 528.60 C 510.16 525.14 504.94 523.20 500.32 520.34 C 494.78 524.18 488.04 529.42 489.41 537.08 Z"></path><path fill="#888785" opacity="1.00" d=" M 140.07 508.13 C 145.00 506.30 149.62 503.04 155.06 503.09 C 156.18 516.19 154.92 529.41 155.70 542.54 C 155.72 546.35 160.13 546.46 162.87 547.10 C 162.45 548.45 163.43 551.29 161.12 550.96 C 153.66 551.11 146.19 550.91 138.73 551.03 C 138.54 549.74 138.37 548.45 138.20 547.18 C 140.06 546.73 141.97 546.41 143.75 545.67 C 146.48 543.69 145.43 539.86 145.70 536.98 C 145.33 528.62 146.40 520.14 145.09 511.85 C 142.96 512.01 140.85 512.39 138.80 513.00 C 138.44 511.29 137.58 508.59 140.07 508.13 Z"></path><path fill="#888785" opacity="1.00" d=" M 178.52 503.44 C 179.65 503.24 181.59 502.70 182.19 504.04 C 182.67 508.33 182.30 512.66 182.32 516.96 C 186.32 512.13 190.39 506.91 196.28 504.31 C 199.86 502.68 204.58 502.54 207.66 505.28 C 210.22 507.75 210.86 511.52 210.82 514.94 C 210.81 523.29 210.78 531.64 210.80 539.99 C 210.93 541.84 210.81 544.17 212.43 545.44 C 214.24 546.47 216.37 546.65 218.38 547.11 C 218.32 548.34 218.13 549.56 217.81 550.76 C 212.18 551.30 206.49 550.92 200.83 550.98 C 198.74 551.22 199.02 548.60 198.83 547.27 C 199.42 546.99 200.60 546.42 201.19 546.14 C 201.05 535.74 201.26 525.34 201.10 514.94 C 201.30 512.70 199.41 510.31 197.06 510.59 C 192.35 511.22 189.15 515.19 186.87 519.01 C 182.74 526.13 180.86 534.79 182.30 542.94 C 182.85 546.62 187.25 546.44 190.04 547.07 C 189.79 548.35 190.28 550.08 188.94 550.91 C 181.24 551.18 173.52 550.88 165.81 551.03 C 165.59 549.74 165.39 548.44 165.19 547.16 C 167.06 546.74 168.98 546.47 170.75 545.73 C 172.60 544.53 172.84 542.06 172.97 540.06 C 173.06 532.70 172.96 525.34 173.01 517.98 C 173.10 515.85 172.67 513.76 172.07 511.74 C 170.20 511.94 168.34 512.31 166.60 513.02 C 165.35 511.95 164.41 509.26 166.45 508.51 C 170.42 506.69 174.44 504.98 178.52 503.44 Z"></path><path fill="#888785" opacity="1.00" d=" M 220.93 532.02 C 219.87 518.91 229.68 505.26 242.94 503.36 C 248.99 502.58 255.09 504.07 260.55 506.67 C 260.42 511.51 260.61 516.36 260.32 521.20 C 258.52 521.20 256.71 521.20 254.91 521.19 C 254.68 517.77 254.01 514.11 251.45 511.62 C 246.95 506.93 238.43 507.32 234.49 512.53 C 229.07 519.69 228.55 530.24 233.11 537.96 C 235.83 542.66 241.66 545.65 247.03 543.99 C 252.94 542.42 256.62 537.20 261.08 533.44 C 261.79 535.21 262.73 537.54 261.17 539.16 C 256.44 545.02 250.59 550.90 242.91 552.41 C 231.38 554.30 220.39 543.45 220.93 532.02 Z"></path><path fill="#888785" opacity="1.00" d=" M 278.07 506.09 C 282.52 503.29 288.13 502.43 293.21 503.78 C 299.57 505.57 303.85 511.70 305.03 517.98 C 305.14 519.45 305.99 521.38 304.83 522.63 C 294.53 523.07 284.20 522.65 273.89 522.83 C 273.42 530.22 275.76 538.60 282.38 542.70 C 287.29 545.74 293.58 544.35 298.05 541.15 C 301.01 539.40 302.97 536.39 305.89 534.63 C 307.29 535.55 306.80 537.46 307.10 538.87 C 301.45 545.10 294.85 551.87 285.97 552.56 C 277.11 553.49 269.45 546.52 266.51 538.66 C 262.29 526.84 267.69 512.84 278.07 506.09 M 282.10 508.99 C 278.05 510.48 275.65 514.45 274.52 518.43 C 281.43 518.51 288.34 518.49 295.25 518.44 C 294.41 515.91 293.79 513.13 291.79 511.22 C 289.40 508.62 285.40 507.54 282.10 508.99 Z"></path></g><g id="#4b4b4bff"><path fill="#4b4b4b" opacity="1.00" d=" M 258.16 111.37 C 272.18 107.87 286.63 110.72 300.51 113.42 C 305.32 114.15 310.07 115.59 314.97 115.58 C 318.47 114.99 321.41 112.84 324.37 111.02 C 325.97 131.28 327.77 151.50 328.83 171.80 C 326.87 172.26 324.88 172.62 322.89 172.97 C 319.50 164.55 315.76 156.11 310.19 148.88 C 305.31 142.05 298.67 136.20 290.59 133.58 C 284.07 131.66 276.35 132.41 271.20 137.17 C 266.86 140.72 264.67 146.40 264.82 151.94 C 264.58 157.04 265.88 162.66 269.97 166.06 C 276.49 171.93 285.06 174.34 292.84 177.98 C 304.97 182.79 316.99 188.47 327.05 196.91 C 336.30 204.58 341.18 216.44 342.46 228.17 C 343.81 240.76 343.24 253.82 338.87 265.80 C 332.99 284.00 318.30 299.47 299.90 305.15 C 286.82 309.60 272.61 309.85 259.12 307.25 C 250.37 305.84 241.89 302.80 233.03 302.16 C 228.05 301.54 224.46 305.35 220.84 308.05 C 220.29 280.95 218.40 253.89 217.71 226.79 C 219.66 226.76 221.61 226.75 223.57 226.74 C 225.23 240.44 228.45 254.39 236.14 266.04 C 241.67 274.79 250.39 281.89 260.63 284.11 C 267.34 285.50 274.37 285.60 281.05 283.94 C 289.41 281.89 296.35 274.55 297.46 265.94 C 298.35 259.98 298.09 253.48 294.80 248.24 C 290.06 240.11 281.24 235.65 272.88 232.09 C 261.14 226.39 248.27 222.40 238.17 213.82 C 229.25 206.80 223.69 196.27 221.39 185.27 C 218.35 169.85 219.51 153.41 225.78 138.90 C 231.77 125.56 243.70 114.59 258.16 111.37 Z"></path><path fill="#4b4b4b" opacity="1.00" d=" M 106.18 113.64 C 127.30 113.45 148.43 113.66 169.55 113.53 C 169.63 116.24 169.86 118.98 169.53 121.69 C 167.54 123.85 164.48 125.58 164.22 128.82 C 163.41 135.93 166.43 142.66 167.70 149.53 C 175.90 182.98 184.22 216.41 192.37 249.87 C 196.21 263.20 198.00 277.21 203.97 289.85 C 205.77 293.51 209.44 295.79 213.29 296.78 C 213.51 299.37 213.48 301.99 213.07 304.57 C 189.33 304.32 165.57 304.74 141.83 304.35 C 141.84 301.85 141.84 299.36 141.83 296.86 C 145.85 295.34 150.17 293.12 151.53 288.70 C 154.24 280.18 152.34 270.88 149.11 262.77 C 143.59 250.13 132.45 240.32 119.59 235.56 C 114.83 233.85 109.79 233.27 104.82 232.51 C 102.53 241.34 100.04 250.11 97.95 258.98 C 95.78 267.82 92.99 276.77 93.66 285.99 C 93.80 288.92 95.00 291.82 97.06 293.92 C 99.06 295.85 101.93 296.19 104.51 296.84 C 104.48 299.38 104.47 301.92 104.45 304.46 C 88.72 304.51 72.99 304.57 57.27 304.43 C 57.19 301.85 57.17 299.28 57.16 296.71 C 62.98 294.58 68.04 290.32 70.56 284.59 C 74.25 276.19 76.90 267.36 79.13 258.47 C 89.41 219.57 99.68 180.67 109.91 141.76 C 111.23 137.46 112.35 132.87 111.44 128.37 C 110.76 125.53 108.34 123.71 106.19 121.98 C 106.16 119.20 106.17 116.42 106.18 113.64 M 124.85 157.38 C 122.60 164.50 120.87 171.77 118.99 178.99 C 116.26 189.74 113.02 200.36 110.60 211.19 C 117.16 212.47 123.70 214.26 129.61 217.45 C 133.08 219.43 136.24 221.91 139.55 224.14 C 134.73 201.87 129.57 179.67 124.85 157.38 Z"></path><path fill="#4b4b4b" opacity="1.00" d=" M 356.79 113.58 C 377.61 113.57 398.43 113.54 419.25 113.59 C 419.26 116.42 419.26 119.24 419.24 122.07 C 414.43 123.49 411.44 127.76 410.81 132.61 C 409.93 139.71 410.45 146.88 409.73 154.00 C 409.71 191.01 409.70 228.02 409.74 265.02 C 410.67 273.10 409.45 281.40 411.71 289.30 C 412.73 292.95 416.02 295.16 419.29 296.64 C 419.26 299.21 419.25 301.79 419.26 304.36 C 398.42 304.61 377.57 304.58 356.74 304.38 C 356.76 301.84 356.76 299.30 356.75 296.77 C 359.58 295.46 362.84 294.17 364.20 291.10 C 366.46 286.07 366.25 280.37 366.66 274.97 C 366.64 230.97 366.68 186.97 366.64 142.96 C 366.27 138.14 366.33 133.15 364.71 128.53 C 363.46 125.10 360.13 123.11 356.80 122.11 C 356.76 119.27 356.76 116.42 356.79 113.58 Z"></path><path fill="#4b4b4b" opacity="1.00" d=" M 475.24 113.61 C 496.35 113.51 517.46 113.63 538.57 113.55 C 538.66 116.34 538.67 119.13 538.68 121.93 C 536.36 123.75 533.42 125.68 533.19 128.93 C 532.56 135.74 534.94 142.29 536.50 148.81 C 546.61 189.89 556.67 230.98 566.88 272.03 C 568.72 278.79 570.36 285.83 574.21 291.79 C 575.95 294.66 579.25 295.77 582.24 296.85 C 582.23 299.36 582.23 301.87 582.25 304.39 C 558.59 304.67 534.93 304.39 511.26 304.53 C 511.18 301.94 511.15 299.35 511.11 296.76 C 515.36 295.20 519.89 292.64 520.77 287.76 C 523.20 276.13 520.19 263.45 513.03 253.98 C 506.62 245.07 497.28 238.37 486.85 235.00 C 482.63 233.62 478.20 233.23 473.85 232.49 C 471.23 240.86 469.52 249.47 467.20 257.93 C 464.81 267.11 462.02 276.45 462.68 286.04 C 462.87 289.66 464.61 293.32 467.80 295.21 C 469.62 296.14 471.69 296.36 473.67 296.78 C 473.67 299.35 473.66 301.92 473.60 304.50 C 457.83 304.49 442.05 304.53 426.28 304.48 C 426.26 301.86 426.25 299.25 426.25 296.64 C 429.71 295.23 433.17 293.48 435.61 290.56 C 440.45 285.04 442.33 277.74 444.55 270.93 C 446.42 265.35 447.93 259.67 449.29 253.96 C 458.70 218.55 467.98 183.12 477.34 147.70 C 478.78 141.28 481.53 134.83 480.24 128.13 C 479.62 125.40 477.31 123.66 475.26 122.00 C 475.24 119.20 475.24 116.40 475.24 113.61 M 486.63 183.92 C 483.98 192.93 482.21 202.18 479.29 211.11 C 484.21 212.10 489.08 213.35 493.76 215.18 C 499.26 217.29 503.94 220.97 508.66 224.41 C 503.64 202.10 498.71 179.77 493.82 157.44 C 490.97 166.14 489.24 175.15 486.63 183.92 Z"></path></g><g id="#b9b9b8ff"><path fill="#b9b9b8" opacity="1.00" d=" M 634.75 235.48 C 635.08 229.75 635.94 224.08 637.00 218.45 L 637.00 229.44 C 636.25 231.45 635.43 233.44 634.75 235.48 Z"></path></g><g id="#868583ff"><path fill="#868583" opacity="1.00" d=" M 101.00 449.99 C 103.59 449.22 106.34 449.63 109.00 449.56 C 170.00 449.60 231.00 449.52 292.00 449.59 C 295.15 448.86 294.97 453.21 292.06 452.59 C 229.03 452.62 165.98 452.62 102.94 452.58 C 101.65 452.91 99.29 451.31 101.00 449.99 Z"></path></g><g id="#898785ff"><path fill="#898785" opacity="1.00" d=" M 330.13 450.21 C 348.39 449.71 366.70 450.16 384.98 450.00 C 430.34 450.08 475.71 449.88 521.07 450.09 C 523.52 449.84 523.43 453.27 521.12 453.09 C 457.71 453.16 394.29 453.15 330.88 453.10 C 329.11 453.47 328.13 450.57 330.13 450.21 Z"></path></g><g id="#7a7a7aff"><path fill="#7a7a7a" opacity="1.00" d=" M 205.04 593.72 C 236.36 593.29 267.68 593.30 298.99 592.78 C 301.02 592.85 303.44 592.28 304.96 594.03 C 318.02 605.74 331.16 617.37 344.22 629.10 C 329.89 641.12 315.32 652.85 300.82 664.66 C 310.01 653.22 319.50 642.02 328.77 630.66 C 329.35 629.85 330.62 628.61 329.30 627.80 C 320.43 619.62 311.41 611.60 302.53 603.44 C 301.48 602.65 300.55 601.30 299.06 601.57 C 269.36 601.79 239.66 602.01 209.97 602.24 C 208.68 602.23 207.33 602.48 206.45 603.51 C 196.98 612.33 187.51 621.15 178.03 629.97 C 201.41 658.61 224.78 687.27 248.25 715.84 C 249.04 716.77 249.50 717.92 249.92 719.07 C 246.73 717.32 244.73 714.16 242.22 711.65 C 216.60 684.47 191.14 657.14 165.50 629.98 C 178.72 617.94 191.83 605.78 205.04 593.72 Z"></path><path fill="#7a7a7a" opacity="1.00" d=" M 211.07 612.00 C 212.09 610.99 213.62 611.23 214.91 611.13 C 224.14 611.18 233.35 610.77 242.58 610.69 C 236.58 616.48 230.59 622.28 224.46 627.95 C 234.13 639.23 243.69 650.61 253.21 662.02 C 263.16 650.90 272.97 639.66 282.62 628.28 C 276.53 622.46 270.55 616.54 264.55 610.63 C 275.04 610.48 285.54 610.51 296.03 610.52 C 302.54 616.56 309.10 622.55 315.60 628.62 C 294.62 653.11 273.56 677.55 252.69 702.14 C 232.23 677.99 212.41 653.28 192.18 628.93 C 198.51 623.33 204.68 617.54 211.07 612.00 Z"></path><path fill="#7a7a7a" opacity="1.00" d=" M 425.14 669.17 C 430.90 662.45 440.06 658.63 448.86 659.27 C 452.77 661.06 454.42 665.67 456.09 669.40 C 447.88 669.06 439.43 670.95 432.61 675.67 C 430.08 677.53 427.29 680.29 428.21 683.76 C 431.07 688.49 436.59 690.74 439.76 695.24 C 443.54 699.84 444.17 707.41 439.91 711.90 C 434.28 718.33 424.52 720.55 416.58 717.56 C 413.94 716.68 411.52 714.78 410.81 711.99 C 409.95 707.95 411.95 704.03 413.90 700.63 C 415.04 703.13 415.65 706.31 418.31 707.72 C 422.74 710.37 428.56 708.45 431.71 704.67 C 433.96 702.66 434.61 698.82 432.59 696.45 C 429.44 692.54 425.80 689.05 422.51 685.27 C 414.95 696.52 408.05 708.86 396.56 716.63 C 393.03 719.13 387.43 718.75 384.91 715.02 C 382.61 711.64 384.14 707.44 384.67 703.78 C 379.01 710.23 372.43 718.19 362.94 717.65 C 358.30 717.95 355.16 713.99 353.63 710.09 C 352.80 712.38 351.94 714.66 351.09 716.94 C 353.88 718.25 357.37 719.39 358.49 722.62 C 360.53 727.18 358.85 732.18 357.67 736.73 C 357.03 731.00 355.04 723.87 348.43 722.69 C 337.74 744.55 322.83 764.66 303.58 779.70 C 296.81 784.46 289.49 788.42 282.04 792.00 L 271.31 792.00 C 268.55 789.67 265.28 787.45 264.14 783.84 C 262.61 778.87 263.31 773.30 265.73 768.72 C 271.12 757.45 280.75 749.02 290.47 741.51 C 299.27 735.06 308.34 728.85 318.29 724.30 C 325.66 720.89 332.96 716.68 341.26 716.13 C 344.08 710.02 345.97 703.50 346.97 696.85 C 340.41 705.25 333.15 713.55 323.57 718.58 C 318.37 721.16 311.50 722.16 306.54 718.52 C 303.45 716.32 303.87 712.20 303.77 708.88 C 300.12 712.83 296.66 717.42 291.47 719.41 C 286.17 721.40 279.89 722.06 274.76 719.23 C 269.06 715.70 266.82 708.31 267.90 701.93 C 269.11 693.62 273.99 686.50 278.89 679.90 C 283.91 673.35 290.51 667.07 298.96 665.70 C 303.27 666.41 307.44 667.92 311.55 669.39 C 315.36 670.72 315.36 675.54 314.45 678.78 C 312.87 682.75 309.28 685.42 306.02 687.98 C 297.45 694.66 286.78 698.77 280.12 707.71 C 280.40 705.67 280.71 703.60 281.96 701.92 C 288.26 692.30 299.13 687.16 306.47 678.50 C 308.08 676.76 307.45 674.29 307.35 672.19 C 305.14 672.47 302.84 672.69 300.93 673.96 C 290.42 680.49 282.35 690.97 279.08 702.94 C 278.65 705.88 278.08 709.37 279.98 711.93 C 282.41 714.92 286.73 713.75 289.92 712.97 C 297.58 710.37 303.01 703.89 307.74 697.64 C 317.08 685.87 326.59 673.20 340.41 666.45 C 348.63 662.02 359.09 669.83 358.63 678.75 C 351.31 675.67 343.41 678.96 337.41 683.33 C 329.28 689.49 322.27 697.11 316.81 705.73 C 315.85 707.55 315.58 709.63 315.10 711.62 C 317.26 711.88 319.51 711.78 321.32 710.44 C 331.75 703.81 340.57 695.03 349.05 686.13 C 350.85 684.04 353.59 683.60 356.19 683.43 C 357.33 685.85 357.92 688.46 358.09 691.14 C 365.19 679.90 374.41 669.10 386.80 663.62 C 395.38 659.29 406.53 668.33 404.37 677.56 C 401.79 676.21 399.06 674.62 396.03 675.37 C 386.22 676.49 379.35 684.20 373.12 691.09 C 370.23 694.71 367.54 698.55 365.62 702.77 C 364.92 704.56 363.90 706.83 365.32 708.56 C 368.69 709.57 371.97 707.53 374.57 705.60 C 381.81 699.74 386.63 691.60 392.56 684.55 C 394.26 682.48 396.89 681.72 399.32 680.91 C 400.60 682.72 402.40 684.60 401.81 687.03 C 400.38 695.08 393.00 701.64 394.12 710.20 C 398.93 709.53 402.22 705.68 405.26 702.27 C 409.85 696.77 414.29 691.14 418.24 685.16 C 421.56 680.27 421.19 673.72 425.14 669.17 M 332.89 723.81 C 326.88 726.39 320.45 728.21 315.20 732.28 C 301.10 740.61 287.55 750.36 277.09 763.09 C 273.69 767.64 270.07 773.01 270.99 778.98 C 271.62 782.01 275.46 782.73 278.01 781.96 C 287.90 779.11 296.06 772.37 303.49 765.51 C 309.85 759.21 316.44 753.07 321.93 745.97 C 328.22 738.58 333.46 730.41 338.93 722.42 C 336.87 722.66 334.80 722.99 332.89 723.81 Z"></path></g></svg> 