<?xml version="1.0" encoding="UTF-8"?>
<svg xmlns="http://www.w3.org/2000/svg" xmlns:xlink="http://www.w3.org/1999/xlink" width="283pt" height="283pt" viewBox="0 0 2362 2362" version="1.1">

<path style="fill:#31312f; stroke:#31312f;" d="M719 447L719 448L730 445.286C737.96 443.573 746.179 442.225 754 439.961C761.918 437.668 769.855 434.721 778 433.325C782.544 432.546 787.42 431.462 792 431.093C796.279 430.75 800.719 431.501 804.961 430.776L812.089 428.274L822 427.815L832 425.21L842 424.621L849 422.529L855.714 421.531L863.004 419.188C869.93 418.266 877.052 419.573 884 418.826L896 416.184L908 415.911L927 413.093C935.288 412.427 943.694 413.324 952 412.961C961.356 412.551 970.61 411.001 980 411C977.109 409.787 974.131 410.001 971 410L958 410C939.559 410 921.269 411.47 903 413.714C895.384 414.649 887.609 413.274 880 414.184C875.527 414.72 871.369 416.591 867 417.544L859 418.184L852 419.675C847.042 420.477 841.958 419.521 837 420.325L820 424.586L804 426.326L795 428.675L788 429.518L780 431.675L773 432.529C765.876 434.138 758.993 436.491 752 438.561C741.178 441.764 729.359 442.415 719 447z"/>
<path style="fill:#292b27; stroke:#292b27;" d="M212 1414C212.249 1422.41 218.286 1435.61 227 1438C227.348 1448.76 236.104 1456.66 242.371 1464.59L250.998 1477.83C257.328 1486.65 264.954 1494.56 271.565 1503.17C274.247 1506.66 276.277 1510.58 279.286 1513.83C282.846 1517.67 287.053 1520.81 290.229 1525.03C293.28 1529.07 295.105 1534.08 298.25 1537.95C301.49 1541.93 305.659 1545.19 309.269 1548.82C317.507 1557.09 325.539 1565.54 334.13 1573.46L349.975 1589.03L363.349 1599.8L377.17 1611.82L389.833 1620.57L398.665 1628.68C404.505 1633.29 410.815 1637.48 416.914 1641.76L445.996 1661.99L454 1666.64L463.001 1672.21C467.342 1675.07 470.689 1677.64 476 1678C477.464 1682.1 481.41 1683.11 485 1685.17L506.914 1698.04L512.17 1701.36L524.865 1706.14C528.631 1708.11 531.226 1711.43 535.018 1713.41L543.83 1717.26C548.251 1719.68 552.313 1722.32 557 1724.32L573.714 1730.71L586 1736.86L600.729 1741.75C606.174 1743.99 610.989 1746.62 617 1747L617 1750C621.54 1750.59 624.869 1752.39 629.089 1753.89L650 1761.54L665 1765.75L685 1772.35C691.863 1774.53 698.26 1777.77 705.286 1779.54L711.961 1780.55L719.089 1783.31L734 1786.76C747.93 1790.43 761.912 1794.47 776 1797.48L797 1801.74L805.996 1802.59L816.039 1805.23L831 1807.32L839 1809.48L848 1810.76L858 1813.67L871 1814.33C874.776 1814.98 878.117 1816.74 882 1816.96L899.985 1817.06C903.29 1817.33 905.815 1819.4 909.039 1819.86C916.426 1820.91 924.539 1820 932 1820L932 1823L1088 1823L1088 1820C1096.7 1820 1105.36 1819.78 1114 1818.71L1129 1816.29L1152 1813.41C1164.3 1811.49 1176.51 1808.59 1189 1808.04C1195.34 1807.76 1200.82 1809 1207 1809.82C1212.97 1810.61 1219.1 1811.32 1225 1812.51C1229.66 1813.45 1234.28 1815.34 1239 1815.87L1256 1816.09L1279 1818.83L1301 1820L1301 1821C1299.69 1821.77 1299.77 1821.69 1299 1823L1442 1823L1442 1820L1453 1819.02L1465.94 1818.92L1473.02 1817.08C1481.93 1816.13 1491.1 1816.89 1500 1815.86L1511 1813.26L1519 1812.72L1532 1810.13L1539 1809.81C1546.46 1808.59 1553.61 1805.77 1561 1804.32L1574 1802.73L1588 1799.47L1595 1798.57L1621 1792.47L1628 1791.53L1645 1786.45C1654.82 1783.99 1665.28 1783.25 1674.87 1780.06L1696.02 1771.2C1703.24 1768.6 1710.69 1767.85 1718 1765.74L1723.98 1764.25L1731.06 1759.8L1735.74 1758.61L1755 1750.73L1772.94 1744.65L1788 1737.47C1793.05 1735.42 1798.91 1734.95 1803.81 1732.59C1806.57 1731.26 1808.25 1728.47 1811.13 1727.12L1823 1722.59L1841.59 1713.31L1847 1710.16L1853 1708.27L1865 1702.4C1873.87 1697.78 1882.43 1692.19 1891 1687L1897.26 1682.81L1902 1680.96L1909 1676.6C1913.54 1674.1 1918.59 1671.97 1922.85 1669.01L1927.32 1664.73L1939.94 1656.59L1946.06 1651.77L1955.87 1645.99L1967.13 1635.73C1972.85 1631.51 1979.93 1629.13 1985.59 1624.8C1990.79 1620.82 1994.57 1615.83 1999.32 1611.45C2002.43 1608.58 2006.55 1607.51 2009.79 1604.92L2014.19 1599.47C2017.69 1595.85 2021.64 1592.47 2025.43 1589.15C2029.55 1585.54 2034.7 1583.25 2038.87 1579.7C2043.41 1575.83 2047.45 1571.13 2051.63 1566.88L2066.57 1551.87L2071.19 1546.06L2082.55 1535.61C2088.17 1530.02 2091.86 1522.8 2097.43 1517.19L2105.57 1511C2110.28 1506.5 2113.39 1501.14 2117.38 1496.13L2128.45 1483C2134.15 1475.1 2137.96 1466.12 2143.2 1458L2148.55 1450.26L2154.66 1444L2158.78 1437.13L2164.31 1430.58L2170.12 1418L2176.96 1408C2181.13 1400.27 2184.59 1391.98 2188.29 1384L2195.71 1369L2199.56 1359.02C2200.85 1356.26 2203.26 1354.44 2204.92 1351.94C2207.05 1348.71 2208.46 1344.58 2209.94 1341L2216.32 1326L2221.08 1311L2225.53 1302L2227.81 1294L2228.57 1288C2229.74 1284.07 2232.51 1280.71 2233.61 1276.74L2237.06 1259L2239.66 1252L2240.49 1245L2242.81 1238L2243.26 1228L2246.72 1215L2248.26 1196L2250.4 1183C2251.32 1179.22 2253.4 1175.94 2253.86 1172C2254.73 1164.51 2254 1156.54 2254 1149L2254 1105C2254 1089.13 2255.08 1072.83 2253.94 1057L2252.28 1049L2249.61 1034L2245.59 1010C2244.21 1003.75 2241.92 997.327 2241.14 991C2240.59 986.525 2240.75 981.627 2239.61 977.259L2231 950C2229.53 944.766 2229.39 939.081 2227.45 934L2224.36 927L2220.54 916C2219.1 912.932 2217.03 910.284 2216.06 907L2213.55 896L2210 890L2206.55 882.741C2204.93 879.438 2204.78 876.105 2201 875C2200.56 870.946 2198.85 868.184 2197.12 864.576L2194.4 857.999L2186.54 843.911L2181.78 833L2177.8 826L2174.14 817L2167.4 807.714L2164.69 801.286C2160.59 793.869 2155.02 787.127 2150.11 780.246L2138.47 763.996L2134.67 757.129C2132.45 753.896 2128.96 751.832 2126.59 748.74L2120.81 739.17C2115.65 732.219 2109.17 726.178 2103.59 719.584L2093.79 706.768L2085.35 698.541L2079.78 691.764L2074.24 687.265L2061.98 673.644L2054.42 667.596L2038.44 652.486L2029.87 643.463L2019.72 635.766L2003.39 621.241L1996.46 616.572L1988.91 609.397L1981.88 604.868L1967.37 592.329L1960.37 588.222L1952.42 581.31C1946.84 577.232 1940.85 574.173 1935.05 570.497L1927.87 564.557L1919 561.198C1911.43 557.742 1905.15 551.855 1898 547.612L1882 538.733C1872.42 533.107 1863.15 527.031 1853.01 522.491C1845.9 519.305 1840.02 513.238 1832 513C1831.05 509.765 1828.51 509.052 1825.59 507.551C1819.6 504.471 1813.16 502.949 1807 500.273C1803.83 498.898 1801.07 496.362 1797.74 495.398C1793.15 494.071 1788.61 494.217 1784.13 492.032L1775 486.597L1766.13 482.824L1760.94 479.796L1754 478.106C1748.04 476.487 1741.68 474.307 1736 471.866C1727.18 468.076 1718.07 465.843 1709.13 462.565L1704.87 460.435L1690.02 455.926L1684.74 453.407L1670.13 449.602L1664.94 447.491L1658.13 446.606L1627.02 438.181L1620.87 436.194L1615 435.681L1604 432.472C1598.76 431.359 1593.31 432.121 1588 431.056L1573.13 427.611L1564 424.394C1558.8 423.199 1553.27 423.421 1548 422.866L1540 421.264L1532 420.861C1527.13 420.297 1522.62 418.054 1517.87 417.194C1514.01 416.497 1509.9 417.194 1506 416.94L1484 414.866C1467.02 413.202 1450.02 411.17 1433 410.06C1426.38 409.629 1419.63 410 1413 410L1376 410L1321 410C1311.81 410 1302.14 409.124 1293 410.079L1284 412.718L1270 414.153L1263 415.847L1255 416.139L1248 417.722L1236 418.866L1224 419.278L1214 421.583L1206 422.319L1200 423.847C1194.82 424.548 1189.22 424.038 1184 424C1180.08 423.971 1176.81 422.669 1173 422.153C1169.35 421.659 1165.61 422.411 1162 421.509L1153 418.282C1148.74 417.503 1144.3 418.292 1140 417.935L1132 416.153C1123.12 414.95 1113.88 417.05 1105 415.847L1093 413.134C1085.06 412.34 1076.96 413.459 1069 412.94L1044 410.06C1035.4 409.5 1026.62 410 1018 410C1006.69 410 995.3 409.596 984 410.019L952 412.94L927 413.019L918 414.722L908 415.866L895 416.139L883 418.866C876.054 419.595 868.934 418.274 862.005 419.139L854.866 421.602L848 422.477L841 424.681L831 425.153L821 427.861L811.134 428.199L803.995 430.843C799.058 431.612 793.946 430.463 789 431.278C780.289 432.713 771.55 434.434 763 436.727L751 440.532L728 445.468L720 447.722L715.134 448.194L709.94 449.806L703 450.412C697.842 451.767 692.969 454 687.982 455.801L674.134 459.606L661 464.944C654.755 467.077 648.05 467.676 642 470.213L628 477.269L622 479.139L597 489.667L584.005 493.653L576.866 497.741L550.018 509.139L533 518.588L518.94 525.352L512.134 528.194L506.94 532.213L499.875 535.542L483.866 546.306L477.06 548.736L469.986 553.792L462.019 557.56L455.921 563.259L449.06 567.148L442.94 571.806C438.223 574.553 432.758 576.183 428.134 579.153L421.736 584.569L409.255 592.764C401.769 598.418 396.096 606.087 388.736 611.796C384.167 615.34 378.922 617.676 374.426 621.486L366.606 629.699L360.431 634.417L352.583 641.921L347.431 645.278L336.759 654.458L327.431 661.412C322.42 665.866 317.827 670.859 313.125 675.63C310.179 678.619 306.677 681.348 304.083 684.648L299.523 692.125L266.546 728.546L262.681 733.921L257.926 738.394L254.065 744.981L241.486 761.019L234.12 774C228.65 782.929 222.357 791.467 216.296 800C212.878 804.813 210.587 809.841 207.824 815L199.134 829L193.329 841C191.609 844.316 189.744 847.9 187.468 850.866C185.854 852.967 183.924 854.639 182.676 857.019C179.671 862.745 176.617 868.996 174.356 875.06L172.602 880.94L168.398 887.278L167.218 891.94L165.194 897.134L164.269 903C161.918 909.913 158.604 916.341 155.727 923C153.083 929.119 151.43 935.72 149.315 942L146.546 949L144.194 958L143.606 965C142.493 969.9 139.713 974.207 138.491 979L137.528 987L132.394 1005L131.588 1014L127.259 1037L126.861 1045L124.139 1056C123.494 1061.55 124 1067.41 124 1073L124 1104L124 1143C124 1149.89 123.346 1157.15 124.139 1164C125.323 1174.23 129.176 1183.98 131.352 1194C132.431 1198.97 131.638 1204.04 132.88 1209L137.347 1221L138.412 1229.74C139.19 1232.32 140.682 1234.21 140.935 1237C141.413 1242.28 140.279 1247.79 141.477 1253C142.131 1255.84 143.579 1258.33 144.694 1261L149.199 1273.94L151.606 1279.13L153.065 1285.87L155.662 1292.02C156.616 1296.01 156.063 1299.98 157.338 1304C159.056 1309.41 161.669 1314.97 164.292 1320C166.318 1323.89 169.005 1327.88 170.394 1332.06L171.213 1338L173.551 1344L174.787 1349.87L178.255 1356.02L183.56 1369.87L191.019 1382C193.495 1386.56 195.216 1391.58 198.065 1395.94L205.273 1405.13C207.441 1408.76 207.502 1412.77 212 1414z"/>
<path style="fill:#393735; stroke:#393735;" d="M1047 410L1047 411L1069 412.961C1076.63 413.295 1084.39 412.407 1092 413.171L1105 415.896C1112.59 416.602 1120.38 415.792 1128 416.015L1139 417.896L1151 418.188C1154.89 418.701 1158.18 420.942 1162 421.661L1172 422.209L1179 423.791C1184.51 424.557 1190.44 424.028 1196 423.999C1199.91 423.979 1203.21 423.089 1207 422.375L1215 421.561L1225 419.325C1232.5 418.109 1240.42 418.735 1248 417.816C1260.62 416.285 1273.19 413.035 1286 413C1283.12 411.793 1280.12 411.968 1277 412.004C1269.72 412.088 1262.22 413.624 1255 414.576L1240 415.184L1232 416.905L1219.17 418.259L1213.91 419.741C1210.34 420.367 1206.6 419.882 1203 420.039L1195 420.907C1191.61 421.099 1188.36 420.32 1185 420.089L1175 419.83C1170.11 419.365 1165.6 418.123 1160.83 417.259L1154 416.83L1140 415.17L1128 414.907L1118 413.093C1094.36 411.155 1070.75 410 1047 410z"/>
<path style="fill:#ffffff; stroke:#ffffff;" d="M378 1561C382.6 1562.54 385.948 1565.64 389.627 1568.72L405.334 1582.24C409.733 1585.95 414.408 1588.65 417 1594C424.666 1595.12 429.759 1602.02 435.961 1606.12L452.83 1617.16L457.923 1621.4L474.116 1631.04L484 1639.28C487.613 1641.86 492.069 1642.33 495.715 1644.78C502.831 1649.57 509.394 1655.24 516.999 1659.37L535.576 1668.12L544 1673.55L558 1681.42C563.749 1684.49 570.079 1686.42 576 1689.12L587.17 1695.7C590.443 1697.47 594.33 1697.33 597.714 1698.84L627.986 1712.13L634.286 1715.44L641.83 1717.18C655.918 1722.74 669.571 1729.51 684 1734.2L691.714 1735.75L712 1743.1L720 1744.78L735.089 1749.16L743.83 1750.47L757 1754.55L764.985 1756.05L771.286 1758.53L778.996 1759.76L787.17 1762.78L800.83 1764.46L812 1767.76C817.937 1768.88 824.041 1768.23 829.911 1769.26L849 1773.69C859.252 1775.6 869.725 1775.9 879.999 1777.43L890.089 1779.87L914 1781.17L932 1782.09L972 1784.96C992.583 1785.86 1013.4 1785 1034 1785C1043.42 1785 1052.63 1784.73 1062 1784.09C1066.44 1783.79 1071.31 1785.14 1074 1781L1066.17 1779.54C1059.7 1777.63 1053.62 1774.43 1047 1772.76L1037 1771.51C1031.51 1770.08 1026.37 1767.26 1021 1765.53L1001.91 1758.61C997.953 1757.19 993.839 1756.16 990.039 1754.31C985.912 1752.3 982.371 1749.4 978 1747.83L968 1744.55C965.594 1743.92 963.263 1743.71 961 1742.59C952.722 1738.46 944.499 1732.2 935 1732C933.556 1727.06 927.348 1727.29 923 1726.11C917.694 1724.66 913.021 1721.45 908.134 1719.03L901.982 1715.44C894.099 1711.62 885.715 1708.47 878.116 1703.98L863 1694.82L850.259 1688.59L843.607 1683.21L832.259 1677.33C827.733 1674.23 823.924 1670.32 819.125 1667.52C815.611 1665.48 811.714 1664.81 808.259 1662.46L798.417 1655.72L790.94 1649.21C783.656 1644.17 775.43 1640.13 768.431 1634.72L745.745 1616.39L735.218 1608.74L729.681 1602.56L722.648 1598.06L703.574 1580.41L696.491 1574.66L689.63 1567.15L670.375 1549.39L667.069 1545.19L657.185 1534.13L643.218 1519.32L638.843 1513C633.941 1507.18 628.072 1502.3 623.435 1496.26L612.482 1479.94L605 1471L663 1471C663.909 1474.22 665.854 1476.24 667.63 1479.04C671.919 1485.81 676.787 1492.28 682.026 1498.39L699.88 1520.46L705.58 1525.41L715.711 1535.6C719.536 1539.09 723.338 1545.33 728.174 1547.27C732.471 1549 738.441 1548 743 1548C741.708 1539.43 734.592 1532.18 730.13 1525C721.815 1511.61 713.013 1498.79 703.931 1485.91L697.969 1476.33L693 1471C697.982 1471 705.23 1469.68 709.853 1471.74C712.33 1472.85 713.064 1475.39 714.31 1477.58C717.349 1482.92 721.591 1487.95 723 1494C728.089 1496.54 731.073 1503.26 734.125 1508L741.731 1519.04C746.156 1526.61 749.312 1534.08 754.9 1541C756.743 1543.28 757.996 1546.56 760.299 1548.4C763.722 1551.12 769.911 1550 774 1550L807 1550C806.303 1545.74 803.414 1542.52 801.425 1538.73L795.427 1528.91L789.49 1517C786.729 1511.88 783.138 1506.74 782 1501L778 1501C777.74 1497.13 776.252 1494.53 774.799 1491L772.317 1484.04L765 1471L779 1471C779.695 1475.37 781.841 1477.51 784.049 1481.17L787.584 1488C794.595 1501.12 803.343 1513.45 809.711 1527L815.332 1538.09C816.875 1541.56 817.636 1545.88 821.21 1547.97C823.738 1549.45 827.195 1549 830 1549L849 1549C857.619 1549 866.399 1548.52 875 1549.09C877.568 1549.26 881.948 1550.76 883.378 1547.69C885.414 1543.32 880.259 1537.55 878.455 1534L874.255 1523C871.651 1516.87 868.27 1510.55 867 1504L864 1504C863.915 1496.38 859.987 1490.83 857.121 1484L855.59 1477.09L853 1471L866 1471C867.362 1476.47 870.39 1481.11 872.738 1486.17L874.824 1492.49L882.813 1507.42L885.174 1516L891.24 1529L895.9 1541C896.857 1544.13 897.383 1547.88 900.475 1549.72C903.727 1551.65 908.382 1551 912 1551L938 1551L966 1551C968.892 1551 973.807 1551.7 975.397 1548.57C977.392 1544.63 975.06 1539.7 973.785 1536L970.749 1526.71C969.163 1521.97 969.278 1516.77 967.459 1512L960.838 1497.68L959.121 1491C956.751 1484.29 954.025 1478.21 954 1471L969 1471C969.081 1477.88 973.055 1483.33 974.545 1490L977.41 1506L982.456 1520.17L985.121 1530C987.005 1535.39 986.029 1544.58 991.634 1547.77C994.177 1549.22 997.178 1548.99 1000 1549L1016 1549L1077 1549L1074.34 1540L1073.79 1530L1072.21 1523L1071.78 1511L1069.27 1503L1068.79 1491L1066.39 1483C1065.58 1479.14 1066 1474.92 1066 1471L1078 1471C1078 1475.12 1077.39 1479.8 1078.28 1483.83C1079.01 1487.12 1081.42 1489.56 1081.87 1493L1082.13 1504L1083.74 1511L1084.22 1522L1086.51 1529C1087.99 1534.78 1085.18 1541.91 1089.43 1546.85C1093.74 1551.86 1103.09 1550 1109 1550L1160 1550L1175 1549.98C1177.22 1549.88 1179.62 1549.71 1180.97 1547.68C1182.23 1545.8 1181.98 1543.15 1182 1541L1182 1526L1182 1471L1193 1471L1193 1527L1193 1541C1193.01 1542.99 1192.7 1545.72 1194.03 1547.4C1195.41 1549.14 1198.02 1548.96 1200 1549L1214 1549L1265 1549L1278 1549C1279.75 1548.96 1281.93 1549.11 1283.4 1547.97C1286.01 1545.95 1286.66 1539.08 1286.91 1536L1287.13 1525.04L1289.78 1516.96C1290.49 1512.79 1290 1508.22 1290 1504C1297.3 1501.94 1294.34 1493.87 1295.14 1488L1297.7 1480C1298.3 1477.1 1298 1473.94 1298 1471L1310 1471C1309.99 1475.9 1308.55 1480.2 1308.1 1485C1307.74 1488.96 1308.51 1493.09 1307.7 1497L1305.3 1504C1304.48 1507.94 1305.47 1512.05 1304.73 1516L1302.41 1523C1301.82 1525.6 1302.02 1528.35 1302 1531C1301.98 1533.02 1302.01 1535.04 1301.46 1537C1300.51 1540.34 1297.35 1545 1300.03 1548.4C1302.02 1550.92 1307.2 1550 1310 1550L1337 1550L1370 1550C1374.11 1550 1380 1551.03 1383.67 1548.82C1387.64 1546.43 1388.25 1541.99 1389.53 1538L1392.53 1529L1395.54 1518L1400.59 1503L1403.53 1489L1406.96 1479C1408.19 1476.16 1409.53 1474.1 1410 1471L1424 1471C1423.57 1477.53 1420.41 1483.78 1418.54 1490L1409.54 1518L1408.12 1525C1405.23 1533.3 1401.08 1541.18 1400 1550L1457 1550L1470 1550C1472.78 1549.94 1475.5 1549.8 1477.57 1547.68C1479.36 1545.85 1479.79 1543.29 1480.93 1541.09C1483.06 1536.96 1484.98 1533.38 1486.63 1529L1496.91 1505L1500 1494.04L1503.39 1487.83C1506 1483.14 1506.26 1475 1511.22 1472.03C1514.61 1470 1520.2 1471 1524 1471C1521.74 1478.16 1518.63 1485.36 1515.13 1492L1509.81 1501C1507.63 1505.77 1507.99 1511.3 1505.7 1516L1498.83 1528L1495.58 1537C1493.7 1541.57 1492.06 1544.98 1492 1550L1534 1550L1546 1550C1548.24 1550 1550.78 1550.24 1552.91 1549.4C1556.91 1547.8 1558.27 1543.52 1560.03 1540C1562.07 1535.92 1564.6 1532.3 1566.25 1528C1567.38 1525.05 1568.27 1521.86 1569.97 1519.17L1576.41 1510.87C1580.19 1504.14 1582.57 1496.65 1586.42 1490C1590.08 1483.68 1595.6 1478.34 1597 1471L1610 1471C1607.78 1476.63 1605.18 1482.79 1602.08 1487.99C1600.35 1490.89 1597.59 1492.99 1596.14 1496.09L1593.56 1504L1588.6 1513L1584.89 1522C1579.62 1531.26 1571.13 1538.75 1571 1550L1601 1550C1604.94 1550 1611.06 1551.14 1614.69 1549.4C1616.81 1548.38 1617.21 1545.87 1618.56 1544.14C1619.85 1542.49 1621.18 1541.88 1623 1541C1623.35 1536.44 1625.64 1535.33 1628.08 1531.79L1635.89 1519C1641.99 1509.73 1646.59 1499.27 1653.04 1490.21L1658.09 1484.79C1661.38 1480.54 1662.89 1474.66 1668.01 1472.03C1671.47 1470.25 1676.24 1471 1680 1471C1678.07 1478.32 1672.78 1483.73 1668.86 1490L1664.88 1498L1656.94 1510.04C1654.9 1513.5 1653.08 1517.4 1650.49 1520.49L1644.52 1527.04L1638.34 1537.83C1635.93 1541.69 1632.74 1545.47 1632 1550L1645 1550C1647.57 1550 1650.39 1550.23 1652.83 1549.27C1660.85 1546.11 1666.29 1536.56 1671.16 1530L1683.41 1514.99C1688.73 1507.3 1693.14 1498.73 1698.8 1491.3L1703.26 1486.54C1706.64 1482.48 1708.24 1475.84 1712.34 1472.6C1716.46 1469.36 1725.06 1471 1730 1471L1777 1471C1774 1475.77 1769.98 1479.45 1766.74 1484C1762.29 1490.25 1759.04 1497.25 1753.57 1502.81C1750.41 1506.02 1746.34 1507.69 1743.55 1511.42L1739.8 1517L1733.48 1524L1728.28 1531.81C1722.27 1539.27 1714.7 1545.17 1708.13 1552.06L1699.59 1561.74L1692.55 1567.53L1684.25 1576.57C1677.23 1583.23 1669.65 1589.22 1662.26 1595.41C1654.46 1601.94 1647.71 1609.47 1639.74 1615.8C1633.41 1620.82 1626.69 1625.71 1619.87 1630.03L1609.39 1635.98L1604.92 1640.22L1598.43 1644.2L1587.74 1653.45L1579 1658.49L1567 1666.79C1562.99 1669.29 1558.32 1670.26 1554.41 1672.69L1530 1688.21L1511 1698.13L1484 1713.07L1473.41 1717.82L1464 1723.07C1460.42 1724.73 1456.2 1724.9 1455 1729C1450.75 1729.34 1446.02 1730.75 1442.13 1732.56L1435.98 1736.34C1432.42 1738.07 1428.64 1738.39 1425 1739.73L1416.87 1743.87L1398.06 1750.35L1380 1758.86L1367 1762.61L1356 1767.15L1344 1770.88C1338.96 1772.87 1334.19 1773.33 1329 1774.47L1321.02 1776.75C1317.1 1777.65 1312.21 1778.87 1311 1783L1322 1784.91C1334.18 1785.89 1346.78 1785 1359 1785C1375.29 1785 1391.73 1785.67 1408 1784.96C1417.03 1784.57 1425.97 1782.43 1435 1782.04L1460 1781.91L1472 1780.17C1478 1779.59 1483.91 1779.92 1489.91 1778.91L1502 1776.29L1532 1773.57C1547.77 1771.31 1563.36 1767.35 1579 1764.46C1586.91 1763 1595.15 1762.58 1602.96 1760.7L1610.09 1758.17L1631.91 1752.79L1638.09 1749.86C1641.52 1748.52 1645.43 1747.7 1649 1746.76L1669 1741.38L1675.91 1740.45C1683.36 1738.48 1690.68 1735.11 1698 1732.67L1714.91 1727.6L1722.04 1723.71L1742.01 1716.21L1757 1709.15C1768.97 1704.25 1781.32 1700.1 1793 1694.5L1813.17 1683.29L1825 1678.01L1840.29 1669.43L1847.91 1666.04L1857 1660.18L1864.71 1656.39L1871.01 1651.76L1879.7 1647.43L1886.17 1642.75L1892.91 1639.58C1898.03 1636.82 1903.11 1633.31 1908 1630.14C1913.1 1626.82 1917.15 1622.15 1922.17 1618.85C1925.24 1616.84 1928.89 1616.18 1931.87 1613.95L1937.26 1608.83L1944.74 1604.22L1950.48 1598.16L1958.54 1592.68L1969.73 1582.59L1991.54 1565.68L2000.17 1557.72L2008.7 1551.57C2014.39 1546.83 2019.37 1541.08 2024.63 1535.87L2042.9 1517.96C2050.1 1510.3 2056.27 1501.51 2063.03 1493.46C2070.15 1484.98 2077.91 1476.91 2084.53 1468C2088.22 1463.04 2090.62 1457.2 2094.4 1452.27L2104.41 1439.99L2118.93 1418.09C2126.55 1407.29 2134.06 1396.63 2140.38 1385L2149.5 1365L2155.79 1354C2157.94 1349.89 2159.01 1345.31 2160.71 1341.01L2164.98 1331.41L2166.54 1324.17L2168.89 1318.91L2171.71 1309C2173.7 1303.27 2176.06 1297.54 2178.61 1292.04L2181.79 1285.83C2183.85 1279.4 2183.99 1272.37 2186.4 1266.01C2187.73 1262.5 2190.19 1259.64 2191.24 1255.99C2195.01 1242.84 2195.56 1229.38 2198.09 1216L2200.68 1206L2202.43 1191L2204.83 1179L2206.17 1162L2207.91 1147C2208.59 1137.08 2208 1126.94 2208 1117C2208 1102.32 2208.29 1087.6 2206.83 1073L2205.17 1063C2204.51 1056.37 2205.61 1049.62 2204.82 1043C2204.28 1038.53 2202.41 1034.37 2201.46 1030L2200.74 1023.17L2199.26 1017.91L2197.71 1007L2193.9 994C2192.87 989.682 2193.25 985.365 2192.71 981C2192.05 975.597 2190.25 970.44 2190 965L2187 965C2186.86 958.308 2184.87 951.296 2182.16 945.17C2181.06 942.665 2179.18 940.662 2178.42 937.986L2172.54 919.83L2171.16 914.089L2167.99 907.911L2165.25 898.17C2162.06 890.62 2157.93 883.212 2154.2 875.911L2149.15 864.286C2145.06 856.135 2139.15 848.989 2134.8 841L2132 834L2127.3 827L2122.88 818.039L2116.41 809.961L2107.46 794.424L2095.68 779.386L2090.87 771.116L2080.85 759.911L2074.01 751L2069.03 743.129C2054.95 726.487 2039.99 710.822 2024.4 695.599C2008.3 679.866 1992.22 664.564 1974.46 650.679L1958.33 636.372L1930.17 616.198L1924.55 610.973L1918.71 607.856L1906.58 598.796L1889 587.82L1881.11 583.567L1875.51 578.313L1868 575.574L1859 569.701L1839.44 560.119L1824.83 551.148L1815.3 546.424L1807.54 541.579C1801.89 538.55 1795.55 536.06 1789.58 533.711L1780.02 531.157C1777.15 529.9 1775.46 527.229 1772.74 525.8C1769.45 524.069 1765.46 523.483 1762 522.081C1757.74 520.355 1753.34 520.241 1751 516C1740.76 515.19 1732.2 510.172 1722.83 506.454C1714.73 503.239 1706.23 501.222 1698 498.477L1689 494.824L1669 489.214L1654 484.29C1649.35 482.68 1644.83 480.565 1640 479.517L1629.04 477.961L1622.83 476.259L1615.04 475.447L1599.71 470.47L1591.17 469.53L1583 466.504C1577.68 465.206 1572.33 465.562 1567 464.674C1561.85 463.816 1557.15 461.184 1552 460.326L1533 458.586L1499 453.41L1483 450.286L1471 449.714L1459 447.209L1446 446.911L1426 445.039C1413.38 444.487 1400.63 445 1388 445L1339 445.015L1329 445.961L1308 446C1309.28 450.38 1314.03 450.77 1318 452.014C1327.58 455.019 1337.72 457.176 1347 460.963L1362 465.356L1369 468.602L1378.98 470.796L1387.02 474.995C1392.8 477.163 1399.29 478.242 1404.87 480.787L1413.87 485.005L1419.43 488.306L1425 489.398C1428.07 490.184 1431.12 491.767 1434 493.079L1446 499.569L1452.87 501.801L1468.94 509.019L1475.06 512.375C1476.95 513.084 1479.02 512.974 1481 513C1482.58 518.129 1486.55 518.882 1491 521.045L1498 525.195L1507.96 529.651L1525.58 538.093L1542 548.664L1554.29 555.108C1559.28 558.208 1563.18 562.722 1568.09 565.87L1578.99 571.511L1598 585.255L1612.54 594.372L1623 603.497C1631.08 609.692 1639.84 615.144 1647.58 621.761L1675.89 647.026L1682.34 651.924L1690.34 660.266C1700.7 670.268 1711.44 679.794 1721.34 690.286L1732.41 702.286L1738.87 710.74L1746 717.974L1750.53 724.424L1759.04 733.089L1772 751L1728 751L1715 751C1712.74 750.995 1710.19 751.235 1708.04 750.397C1705.5 749.403 1704.18 747.183 1702.42 745.255C1698.95 741.461 1696.02 739.283 1695 734C1690.97 731.824 1689.39 728.217 1686.69 724.665C1679.08 714.642 1673.64 703.342 1665.09 694C1662.77 691.468 1660.71 687.784 1657.7 686.028C1655.18 684.559 1651.79 685.001 1649 685L1632 685C1633.76 693.204 1639.85 699.167 1644.33 706L1648.91 714L1660.25 729.286C1664.87 736.301 1668.81 743.736 1673 751C1668.9 751 1662.81 752.105 1659.15 749.973C1656.99 748.717 1656.31 746.463 1655.14 744.427L1648.56 734.961C1646.5 731.928 1643.72 729.237 1642 726L1638.97 719L1627.83 703.004L1622.21 694.875C1620.74 692.597 1619.95 690.115 1617.89 688.248C1613.65 684.403 1608.32 685 1603 685L1571 685C1572.02 691.444 1577.36 697.271 1580.17 703.17L1585.11 714.985L1590.14 722.804L1597.42 738L1604 751C1600.1 751 1593.8 752.181 1590.39 749.972C1588.01 748.425 1587.47 745.416 1586.38 743L1580.53 732L1576.38 723L1567.27 708C1564.36 702.255 1561.23 697.238 1557.76 691.83C1556.49 689.847 1555.74 687.272 1554.03 685.603C1552.38 683.995 1550.15 684.046 1548 684.005L1537 684C1524.7 684 1512.29 684.499 1500 683.961L1490 683C1490.31 688.741 1493.69 693.258 1494 699C1498.79 700.754 1499.67 704.638 1501.92 708.911C1504.18 713.209 1504.81 717.448 1506.54 721.907L1510.7 729.184L1514.12 738.999C1515.85 743.347 1519.28 746.296 1520 751C1515.9 751 1508.86 752.336 1505.32 749.972C1502.13 747.849 1502.88 742.244 1501.01 739.089L1497.57 733.845L1494.47 724.075L1491.54 718.83L1489.56 713L1483.26 700L1479.82 692C1478.97 689.478 1478.71 686.454 1476.57 684.603C1472.88 681.418 1464.55 683 1460 683L1417 683L1405 683.019C1403.21 683.097 1400.95 683.125 1399.66 684.603C1397.75 686.794 1399.76 689.746 1400.48 692C1402.06 697.02 1403.94 701.693 1404 707C1408.76 709.402 1408.5 713.061 1410.42 717.576C1412.6 722.691 1412.96 728.442 1414.26 733.83L1416.32 739.089L1420 751C1416.1 751 1409.8 752.183 1406.39 749.972C1402.84 747.662 1403.5 742.919 1402.2 739.424L1396.52 720.286C1394.96 715.506 1392.48 710.902 1391.28 706L1388.55 696C1387.65 692.584 1387.53 689.126 1384.52 686.742C1382.1 684.831 1378.91 685.016 1376 685.001L1361 685L1300 685C1300.02 689.591 1301.37 693.522 1301.87 698C1302.35 702.293 1301.44 706.759 1302.41 711L1304.73 718L1305.1 728L1306.79 736C1307.47 740.883 1307 746.077 1307 751L1295 751C1295 746.755 1295.38 742.307 1294.87 738.089L1293.05 729.985C1292.75 725.693 1293.47 721.26 1292.78 717L1290.27 709L1289.85 698.015C1289.42 695.203 1287.54 693.419 1286.58 690.855C1286 689.276 1286.05 687.653 1286 686L1219 686L1203 686.001C1200.79 686.016 1197.58 685.639 1196.03 687.603C1194.88 689.057 1195.04 691.266 1195 693.001L1195 705L1195 751L1181 751L1181 685L1115 685L1099 685.001C1095.96 685.022 1092.98 684.95 1090.72 687.318C1086.61 691.641 1088.72 697.747 1087.61 703L1085.21 711L1084.78 723L1082.13 732L1081.79 741L1079 751L1066 751C1067.03 748.369 1068.47 745.832 1068.86 743C1069.44 738.715 1068.42 734.253 1069.3 730L1071.7 723L1072.3 713.089L1074.46 707.83C1075.23 705.333 1075 702.58 1075 700C1075 697.337 1074.83 694.594 1075.54 692C1076.05 690.155 1077.96 687.537 1076.83 685.607C1075.26 682.925 1069.42 684.855 1067 684.961C1057.37 685.382 1047.64 685 1038 685L1005 685C1001.11 685 994.818 683.856 991.434 686.179C989.467 687.529 989.215 689.898 988.574 692.004L985.459 704L977.545 726L976.455 733.911C974.712 739.666 972.316 744.833 972 751L957 751L957 745C962.517 743.169 962.542 734.149 963.039 729.015L964.742 721.83L965.545 716.17L970.455 704C971.741 699.468 970.433 695.668 975 693L975 685L923 685L909 685C906.613 685.001 903.576 684.571 901.344 685.603C899.137 686.624 898.514 688.871 897.589 690.915L893.215 701.001C888.126 710.75 884.153 720.91 879.768 731C877.008 737.351 873.459 744.254 872 751L859 751C859.839 744.116 863.346 738.511 865.272 732C866.514 727.798 865.887 724.403 870 722C872.314 710.911 880.873 701.428 881 690L884 690C882.888 683.596 876.214 685 871 685L838 685C833.725 685 827.235 683.8 823.274 685.603C821.081 686.602 820.171 688.999 819.056 690.965L812.417 701.961L807.897 709.089L795.958 733C792.583 739.27 788.344 743.578 788 751L771 751L775.568 740.039L780.737 732.911L783.789 726L795.37 706.089C799.183 699.059 805.398 693.367 806 685L774 685C769.346 685 764.014 684.158 760.171 687.314C756.64 690.213 754.816 694.193 752.169 697.755L748.383 702.259C741.275 712.898 736.219 724.731 728.593 735L721.17 745.571C719.936 747.38 718.898 749.494 716.776 750.401C713.178 751.938 707.85 751 704 751C706.971 742.276 712.953 735.603 717.806 727.911C720.351 723.875 721.828 719.312 724.924 715.615C729.202 710.506 732.837 705.557 736.502 700C739.726 695.111 743.219 690.969 744 685C738.424 685 731.28 683.82 726.004 685.843C720.838 687.824 717.73 692.604 713.896 696.289C708.193 701.77 704.181 707.827 699.252 713.911L684.951 731.271L674.769 745.281C673.484 746.866 672.4 748.874 670.621 749.973C668.674 751.176 666.192 750.984 664 750.999L654 751L612 751C613.551 747.595 614.954 744.191 617.393 741.301C620.244 737.923 624.042 735.64 626.757 732.127L636.211 719.714C637.755 717.369 638.521 714.654 640.39 712.514C650.611 700.806 662.729 690.588 673.706 679.576L690.091 663.116C697.111 655.641 703.622 647.834 711.464 641.167L719.791 635.874L725.209 630.861L735.7 623.431L748.428 612.17L765.711 600.481L786.089 584.051L795.714 578.216C800.29 574.712 804.434 570.239 809.259 567.1L820 561.48C826.206 557.428 831.616 552.24 838.039 548.5C844.645 544.654 852.155 542.754 858.957 539.37C862.464 537.625 864.766 534.568 868.043 532.517C875.399 527.913 883.281 524.009 890.911 519.912C898.567 515.801 905.959 511.433 914 508.181C920.127 505.702 926.356 501.445 933 501C934.928 497.837 937.678 497.211 941 495.758C943.667 494.591 946.149 492.974 949 492.284C953.521 491.19 958.669 490.98 962.83 488.701L969.039 484.634C973.816 482.449 979.18 481.825 983.996 479.815L1000 471.824L1010 469.286L1035.09 459.835L1042 458.103L1054.17 453.476L1070 449L1070 448L1058 448L1058 445L993 445C982.031 445 970.958 444.559 960 445.039L934 447.911L919 448.17L908 449.834C903.769 450.294 899.341 450.395 895.17 451.259L886.996 453.812C880.731 454.646 874.291 453.561 868 454.17C859.154 455.026 850.684 457.932 841.996 459.406C837.375 460.19 832.612 459.449 828.039 460.339L821.83 462.569C817.191 464.013 811.799 464.898 807 465.675L798 466.325C786.181 468.239 774.419 470.69 762.83 473.545L755 474.76L737 480.911L721 484.04C709.841 487.218 698.912 491.411 688 495.287L673 500.205L665 503.907L656.015 506.764L649.714 510.161L641.17 511.836C633.211 514.48 625.84 519.132 618 522.174L607.039 525.053C602.757 526.445 598.956 529.065 594.83 530.831L586.039 534.133L576.827 539.852C567.788 544.124 558.279 547.866 549.464 552.579L529 564.501C523.419 567.626 517.591 570.229 512.235 573.759L505.892 579.791C499.691 584.042 492.523 586.79 486.09 590.63C474.577 597.503 463.882 605.568 452.91 613.24L441.09 619.464C434.729 623.563 429.745 629.061 423.715 633.547L415.729 638.899L406.7 646.678L400.299 650.796L396.126 656.335C393.472 659.459 389.851 662.722 386.741 665.406L378.425 671.514L354.215 695.18L347.478 700.339L341.537 708.101L326.076 723.734L316.961 735.561L309.464 743.325L303.536 751.741C299.634 755.964 295.679 759.733 292.261 764.439L286.039 774.871L275.748 786.17L270.204 794.911L261.273 807.17C252.763 820.233 246.365 834.268 239.058 848L232.387 858.17C228.82 864.104 226.91 870.758 223.897 876.911L216.556 890C214.442 894.676 213.303 899.971 211.635 904.83L203.575 926.961L196.454 942.286C194.56 946.986 194.292 952.219 192.617 957L188.748 965.424C187.16 969.384 185.89 973.888 184.725 978L182.764 989C181.737 993.367 179.944 997.541 179.3 1002L178.536 1011L176.289 1022L175.471 1032C174.02 1038.46 171.81 1044.3 171.17 1051L170.961 1066L170.039 1075C169.589 1085.29 170 1095.7 170 1106C170 1121.95 169.34 1138.06 170.039 1154L171.834 1167L173.13 1183L175.816 1193C176.96 1200.98 176.604 1209.08 178.095 1217C180.107 1227.69 182.662 1238.52 185.539 1249L188.447 1257L191.517 1273C193.237 1280.87 196.023 1289.03 198.746 1296.58C199.729 1299.3 201.008 1302.3 202.563 1304.74C203.76 1306.62 205.581 1308.02 206.42 1310.13L207.714 1315.58C209.615 1321.62 212.485 1327.3 214.831 1333.17L216.813 1338.96L220.441 1345.17C222.436 1350.46 223.82 1355.85 226.616 1360.91L233.254 1370.13L237.103 1380L244.471 1393L247.845 1400.95C249.793 1404.49 253.45 1406.6 255.625 1410.02L264.522 1425.02C268.587 1430.74 273.312 1435.89 276.867 1442L280.414 1450.33C284.969 1457.34 290.923 1463.53 295.961 1470.17L306.741 1483.99L311.012 1490.06L316.331 1494.49L325.424 1506.48L335.331 1515.89L343.835 1526.08L356.471 1536.94L367.924 1549.73C371.731 1553.83 376.416 1555.17 378 1561M1278 511L1278 508C1272.43 506.854 1270.23 502.481 1266.11 498.978L1258.67 494.186C1252.99 489.713 1249.52 485.299 1242 484L1242 480L1233.02 479.344C1231.63 479.299 1230 479.325 1229.08 480.568C1227.18 483.139 1231.01 487.029 1232.31 489.014L1239.07 498.259C1241.63 502.357 1243.69 506.759 1247.83 509.687C1250.4 511.497 1254.03 510.999 1257 511L1278 511M1056 512C1061.38 511.575 1066.58 511.002 1072 511C1074.65 510.999 1078.24 511.532 1080.57 509.972C1082.52 508.669 1083.06 506.131 1084.54 504.414C1087.51 500.978 1092.21 497.245 1096 494.789C1102.21 490.766 1110.73 488.178 1112 480C1106.79 480.758 1102.67 484.03 1098 486.324L1069 501.25C1064.23 503.633 1056.94 506.375 1056 512M1232 511C1231.62 506.016 1228.64 503.004 1225.89 498.999L1219.39 488.425C1217.75 485.88 1216.34 482.305 1213.52 480.858C1210.77 479.447 1206.99 480 1204 480C1201.35 480 1196.97 479.228 1194.74 481.028C1192.79 482.607 1193.04 485.763 1193 488L1193 503.999C1193.05 506.308 1192.9 509.208 1195.32 510.397C1198.45 511.937 1203.6 511 1207 511L1232 511M1100 510L1119 510C1121.7 510 1125.2 510.531 1127.74 509.397C1130.3 508.25 1131.62 505.135 1133.25 503.014C1137.64 497.294 1141.94 492.423 1143 485L1146 485L1146 481C1141.95 481 1136.93 480.236 1133.09 481.728C1128.94 483.34 1126.28 487.885 1122.83 490.558L1115.46 495.322L1108.92 500.975C1105.4 503.683 1102.06 506.002 1100 510M1146 511L1168 511C1170.88 511 1175.02 511.708 1177.68 510.397C1180.1 509.209 1179.95 506.308 1180 503.999L1180 488.001C1179.96 486.019 1180.14 483.405 1178.4 482.028C1177.45 481.281 1176.14 481.124 1174.98 481.059C1171.88 480.882 1167.19 480.265 1164.46 482.028C1162.06 483.577 1160.6 486.759 1158.87 488.957L1153.93 494.594L1151.15 499.834C1148.62 503.74 1146.49 506.217 1146 511M1265 481C1268.15 487.492 1275.32 491.453 1280.91 495.721L1291.04 504.345C1294.1 506.584 1297.23 509.757 1301 510.683C1303.54 511.307 1306.41 511 1309 511L1323 511L1323 508C1315.92 507.691 1311.06 504.715 1305 501.38L1291.17 494.41L1281.56 487.248C1277.12 484.194 1270.26 481.75 1265 481z"/>
<path style="fill:#f7f7f5; stroke:#f7f7f5;" d="M1314 491C1315.81 496.463 1322.99 498.689 1327.96 500.66C1334.57 503.278 1340.25 507.792 1347.29 509.544C1350.1 510.245 1353.12 510 1356 510C1353.11 505.251 1346.12 503.652 1341.09 501.875C1331.95 498.651 1323.6 492.979 1314 491z"/>
<path style="fill:#ffffff; stroke:#ffffff;" d="M1022 511C1025.93 511 1030.82 511.765 1034.52 510.232C1036.81 509.283 1038.39 507.237 1040.26 505.696C1042.97 503.46 1045.62 501.876 1049 501L1049 498C1043.06 498.276 1039.33 501.359 1034 503.546C1029.26 505.492 1024.04 505.809 1022 511z"/>
<path style="fill:#2b2d29; stroke:#2b2d29;" d="M1323 560C1324.92 564.568 1327.69 569.842 1330.54 573.909L1335 580L1294 580L1283 580C1280.85 579.996 1278.24 580.304 1276.23 579.397C1271.44 577.239 1272.06 568.504 1270.42 564.286L1267.48 558.975L1263.05 548.166L1260.58 543.83L1258.78 534.17C1257.39 530.005 1255.15 527.622 1255 523L1279 523C1283.1 523 1287.95 522.308 1291.95 523.313C1295.42 524.187 1297.71 527.556 1301 529C1297.37 521.544 1291.37 522 1284 522L1266 522C1262.35 522 1254.63 520.492 1253.32 525.148C1252.5 528.083 1253.71 531.189 1254.42 534C1255.62 538.716 1256.97 543.321 1258.83 547.834L1262.16 554.039C1263.01 556.25 1262.83 558.546 1263.26 560.83L1265.41 569.911L1267.98 575.17C1269.2 577.541 1269.94 580.472 1272.34 581.972C1275.22 583.767 1279.77 583 1283 583L1309 583L1329 583C1331.62 582.995 1335.35 583.483 1337.38 581.411C1338.69 580.07 1338.61 578.268 1337.66 576.759L1331.8 570.816C1328.94 566.991 1327.78 561.705 1323 560z"/>
<path style="fill:#ffffff; stroke:#ffffff;" d="M975 580L1008 580C1012.81 580 1019.42 581.156 1023.96 579.397C1030.15 576.998 1033.22 567.901 1036.34 562.594C1038.14 559.546 1040.98 557.724 1042.95 554.871L1046.11 549.259L1055.03 537.41L1057.6 532.424C1060.32 528.902 1064.54 527.333 1066 523L1043 523C1039.24 523 1034.67 522.34 1031.09 523.728C1026.88 525.364 1023.56 530.219 1020.37 533.293L995.627 558.127L983.576 570.101C980.057 573.216 976.295 575.287 975 580M1043 579L1083 579L1094 578.999C1096.14 578.985 1098.55 579.16 1100.52 578.142C1104.04 576.319 1103.58 572.472 1104.88 569.286C1108.2 561.125 1112.97 552.93 1113 544L1116 544C1116.5 536.679 1121.45 530.266 1122 523L1094 523C1090.33 523 1084.7 521.963 1081.32 523.603C1079.27 524.596 1079.05 526.93 1078.01 528.719C1076.31 531.641 1074.07 534.961 1071.87 537.532L1065.75 543.376C1062.27 547.25 1059.4 551.814 1056.33 556.014C1050.89 563.463 1045.96 570.134 1043 579M1131 537L1128 537C1127.98 545.562 1126 554.106 1122.7 562C1120.16 568.072 1116.13 573.449 1115 580L1163 580L1174 579.981C1175.73 579.904 1177.79 579.892 1178.97 578.397C1180.62 576.311 1180 572.469 1180 570L1180 550L1180 531C1179.98 528.791 1180.36 525.583 1178.4 524.028C1176.94 522.877 1174.73 523.037 1173 523.005L1162 523L1144 523C1141.75 523.005 1138.51 522.538 1136.6 524.028C1135.1 525.202 1135.1 527.281 1134.44 528.915C1133.24 531.867 1131.51 533.778 1131 537M1194 523L1194 580L1242 580L1254 579.995C1255.69 579.963 1257.85 580.123 1259.26 578.972C1261.43 577.193 1260.57 574.159 1259.62 572C1257 566.059 1254.88 560.01 1252.66 553.911L1248.05 543C1246.39 538.804 1245.67 534.782 1243.44 530.831C1242.23 528.68 1241.71 525.641 1239.57 524.179C1236.17 521.862 1229.9 523 1226 523L1194 523M1255 523C1255.02 524.974 1254.91 527.023 1255.58 528.915L1258.78 535.089L1260.58 544.714L1263.47 550L1267.93 560.831L1270.42 565.17L1272.85 574.981C1273.35 576.704 1273.68 578.51 1275.43 579.397C1277.06 580.221 1279.24 579.987 1281 579.999L1293 580L1335 580C1333.87 576.474 1331.13 574.243 1329.38 570.996C1326.43 565.523 1322.9 561.242 1319.25 556.246L1305.18 536.83C1301.67 532.418 1299.5 525.884 1293.74 523.585C1290.07 522.121 1284.88 523 1281 523L1255 523M1312 523C1314.17 532.062 1320.97 538.346 1326.44 545.464L1329.58 551L1335.49 557.421L1341.07 565.664L1348.79 575.63C1350.15 577.092 1351.39 578.785 1353.34 579.487C1357.85 581.115 1364.26 580 1369 580L1403 580C1401.88 576.565 1399.43 574.799 1396.8 572.37L1389.13 564.873C1379.05 554.8 1368.92 544.69 1358.51 534.986L1350.59 527.564C1349.09 526.106 1347.91 524.405 1345.9 523.603C1342.69 522.324 1338.38 523 1335 523L1312 523M1364 523C1365.64 528.391 1371.09 532.072 1374.99 535.995L1405.04 564.499L1413.33 572.651C1415.71 575.158 1417.77 578.111 1421.17 579.312C1425.07 580.689 1429.93 580 1434 580L1460 580C1456.47 574.447 1449.68 570.807 1444.29 567.255L1432.29 558.29L1425.3 551.726L1417.38 546.237L1412.56 541.594L1403.67 536.022C1398.57 531.804 1393.29 525.694 1386.83 523.549C1384.07 522.634 1380.86 523 1378 523L1364 523M917 580L957 580C958.052 572.138 965.614 566.655 971.174 561.536L984.435 549.166C990.295 544.193 996.195 539.735 1001.58 534.169C1004.83 530.802 1008.78 528.152 1011 524L995 524C992.068 524.001 988.795 523.675 986 524.742C981.361 526.514 978.038 531.121 974 533.91L956.128 546.009L949.522 552.116C945.463 555.111 941.379 557.242 937.563 560.599C933.781 563.927 930.062 567.62 926.014 570.624C921.993 573.609 917.87 574.629 917 580M1415 527C1416.45 531.479 1420.05 533.107 1423.91 535.449L1430.46 540.589L1437.19 544.532L1444.18 551.29L1459.58 562.391C1464.42 566.059 1468.66 569.938 1474 572.799C1476.94 574.379 1478.86 577.605 1482.1 578.567C1484.88 579.388 1488.14 579 1491 579L1508 579L1508 578L1503.62 574.259L1492.04 569.063C1489.45 567.61 1487.5 565.071 1484.8 563.89C1482.95 563.085 1480.96 563.092 1479 563C1477.2 557.151 1469.12 553.79 1464 550.885L1454.17 545.894L1449.63 542.544L1437.1 537.356L1431.63 533.262C1426.88 530.31 1420.44 528.121 1415 527M870 580L888 580C891.173 580 894.969 580.521 897.999 579.397C902.776 577.624 903.775 572.831 907.299 569.799L925.112 556.19L931.3 550.3C935.169 547.086 939.829 544.118 944.014 541.296C946.933 539.328 949.282 538.111 951 535C943.842 535.211 938.329 538.563 932.13 541.705C925.565 545.033 918.395 547.795 912.086 551.55C906.491 554.88 901.889 559.401 896 562.41L887.089 567.115L879.961 572.489C876.268 574.777 872.39 576.249 870 580z"/>
<path style="fill:#2f2f2d; stroke:#2f2f2d;" d="M1028 599L1029 599C1029.87 596.963 1030.66 595.024 1032.48 593.599C1035.92 590.904 1041.91 592 1046 592L1080 592L1092 592.019C1093.77 592.096 1095.99 592.114 1097.27 593.564C1098.93 595.44 1097.22 598.862 1097.05 601.039L1096.61 607L1094.39 614L1093.46 621L1091.29 627L1090.46 632L1088.3 638C1087.24 643.053 1088.21 646.374 1083 649C1083 651.621 1083.21 654.392 1082.59 656.961L1080.27 663.17C1079.68 666.002 1080 669.122 1080 672L1017 672C1010.6 672 999.297 674.568 997 667C993.814 675.486 1005.98 674 1011 674L1065 674C1069.6 674 1074.42 674.412 1079 673.891C1081.25 673.635 1083.39 672.994 1084.4 670.772C1085.33 668.705 1084.91 666.182 1085.41 664L1087.51 658L1088.53 651L1090.55 644L1091.22 638.015L1096.51 621L1098.42 612C1099.68 608.592 1099.57 605.474 1100.3 602L1102.1 597.005C1102.66 595.187 1102.88 593.307 1101.39 591.858C1100 590.51 1097.83 590.255 1096 590.094L1083 590L1050 590C1045.05 590 1038.89 589.017 1034.09 590.318C1030 591.427 1028.55 595.232 1028 599z"/>
<path style="fill:#55514f; stroke:#55514f;" d="M1193 674L1255 674L1273 674C1275.82 674 1279.27 674.476 1281.94 673.397C1284.45 672.382 1286.07 669.91 1285.63 667.169C1285.2 664.542 1282.95 662.594 1282.31 659.985L1281.74 655L1280.13 648C1279.65 643.832 1280.15 641.085 1277 638C1277 645.685 1277.35 653.374 1279.31 660.83C1280.04 663.592 1283.65 666.551 1281.91 669.567C1280.75 671.586 1278.06 671.826 1276 671.956L1260 672L1194 672L1194 593L1265 593L1265 600L1267 600C1266.98 597.283 1267.48 593.079 1264.57 591.603C1262.94 590.778 1260.76 591.013 1259 591.001L1249 591L1212 591L1199 591.005C1197.27 591.037 1195.06 590.877 1193.6 592.028C1191.86 593.406 1192.04 596.019 1192 598.001L1192 612L1192 649C1192 657.339 1191.47 665.774 1193 674z"/>
<path style="fill:#ffffff; stroke:#ffffff;" d="M958 592C957.449 595.557 955.715 597.249 953.989 600.286L951.441 605.741L947.208 610.259L939.914 621C932.901 630.506 925.801 639.767 919.957 650L911.431 663.911C910.565 665.529 908.449 667.776 908.903 669.772C909.317 671.592 911.508 671.804 913.019 671.941L926 672L981 672C981.981 669.255 982.805 666.928 983 664L986 664C986.568 657.692 989.809 652.673 992.434 647.039C995.674 640.088 999.081 632.916 1002.92 626.286L1006.4 620.961L1009.13 613.089L1013.45 606.911C1016.05 602.482 1018.86 596.984 1020 592L958 592M1080 672C1080 669.11 1079.7 665.979 1080.49 663.17L1082.78 656.961C1083.22 654.374 1083 651.614 1083 649C1083.87 648.737 1085.11 648.671 1085.84 647.971C1088.68 645.274 1087.57 641.443 1088.54 638L1090.46 633L1091.54 627L1093.7 621L1094.39 615L1096.9 606L1097.45 599.17C1097.85 597.428 1099.16 595.26 1097.92 593.564C1097.01 592.333 1095.37 592.185 1093.98 592.059L1083 592L1050 592C1045.11 592 1038.9 590.983 1034.17 592.318C1027.36 594.242 1025.96 604.462 1023.74 610L1014.52 629L1012.13 638C1010.32 643.047 1006.95 648.07 1004.07 652.576C1001.54 656.529 999.537 660.513 998.095 664.999C997.475 666.929 996.745 669.457 998.608 670.972C1000.26 672.314 1003.03 671.986 1005 671.999L1020 672L1080 672M1111 592L1108.3 600.17L1107.79 608L1105.73 619L1103.41 626L1102.32 633.911L1100.27 639.17L1097.86 656C1097.38 658.991 1095.5 661.189 1094.58 664C1093.76 666.538 1094 669.368 1094 672L1156 672L1172 671.999C1173.99 671.986 1176.72 672.301 1178.4 670.972C1179.89 669.788 1179.9 667.729 1179.98 665.995L1180 654L1180 609L1179.98 598.005C1179.9 596.271 1179.89 594.212 1178.4 593.028C1176.94 591.877 1174.73 592.037 1173 592.005L1160 592L1111 592M1297 664C1297.02 665.988 1296.69 668.724 1298.03 670.398C1299.42 672.133 1302.01 671.958 1304 671.995L1317 672L1380 672C1379.68 667.552 1377.69 664.068 1376 660L1369.41 644.089L1364.44 635.985C1362.09 631.492 1359.82 626.768 1358.09 622L1355.88 615.289L1352.59 610.386L1350.13 604.421C1348.16 600.175 1346.3 596.765 1346 592L1297 592L1285 592.019C1283.3 592.095 1281.18 592.097 1280.03 593.603C1277.53 596.888 1281.64 602.448 1281.94 606L1282.51 611.961L1285.49 618.17L1286.54 623.83L1288.7 629.089L1289.3 635L1291.7 642C1292.24 644.586 1292 647.375 1292 650C1292 655.347 1290.34 662.844 1297 664M1432 592C1434.28 602.522 1441.14 609.933 1447.48 618.17L1451.69 624.701L1457.07 629.299C1459.97 633.239 1461.41 638.443 1464.01 642.579L1471.37 651.246L1476.24 659.559L1479.81 664.114C1481.61 666.91 1482.84 670.005 1486.19 671.297C1491.28 673.268 1498.61 672 1504 672L1544 672C1542.99 668.903 1540.88 667.354 1538.9 664.816L1534.12 658.26L1525.81 649.946L1520.47 642.209L1510.24 631.911L1504.36 623.464L1492.54 608.985C1488.14 603.42 1480.83 599.096 1479 592L1432 592M1494 596C1497.24 597.727 1499.42 600.349 1501.98 602.982C1506.35 607.483 1510.34 611.898 1514.36 616.711L1536.33 642.089L1548.96 657C1552.98 661.266 1555.66 668.222 1561.01 670.972C1564.93 672.985 1570.73 672 1575 672L1593 672.039L1605 673C1603.79 669.262 1600.98 668.298 1598.09 665.816C1593.38 661.765 1589.04 656.927 1584.8 652.386C1573.81 640.609 1563.14 628.343 1551.71 616.964L1543.92 610.31L1538.48 604.039L1531.89 598.36C1530.15 596.721 1528.57 594.722 1526.54 593.43C1524.23 591.96 1521.64 592.019 1519 592.001L1503 592C1498.82 592.009 1495.45 591.619 1494 596M774 672L819 672C819.364 669.361 819.804 666.836 821.105 664.464C823.817 659.518 828.913 656.432 832.176 651.91L837.169 644.3L846.486 634.827L850.978 628.424L858.586 620L863.235 613.174L870.961 605.334L875.165 599.125C876.649 596.964 878.186 595.494 879 593L859 593C855.552 593 851.316 592.398 848.055 593.742C844.792 595.087 843.61 598.385 841.586 601.001C838.492 604.998 834.567 608.433 831 612C816.877 626.123 802.371 639.898 788.536 654.3L781.001 661.911C777.578 665.124 774.745 667.215 774 672M834 672L877 672C881.684 672 889.718 673.502 893.567 670.258C895.201 668.881 895.646 666.859 896.475 664.996C897.525 662.64 898.862 660.282 900.286 658.129L905.104 652.741L912.286 642.015L916.918 635.714C919.905 630.804 921.871 623.955 927 621C928.115 613.982 933.847 608.214 938.294 602.87C940.976 599.646 943.347 597.217 944 593L913 593C908.516 593 902.579 591.993 898.304 593.514C894.538 594.853 893.567 598.985 891.201 601.777C889.219 604.115 886.353 605.227 884.128 607.274C882.02 609.213 880.601 611.72 878.911 614L869.725 625C866.648 629.276 864.535 634.393 861.022 638.331L852.104 646.464L843.729 657.626C839.926 662.004 835.872 666.448 834 672z"/>
<path style="fill:#f9f7f7; stroke:#f9f7f7;" d="M1194 593L1194 672L1264 672C1268.84 672 1275.21 673.072 1279.85 671.566C1284.54 670.046 1282.45 665.403 1280 663L1281 670L1197 670L1197 624C1197 614.386 1197.76 604.481 1196 595L1263 595C1263.13 598.871 1264.91 601.398 1265.7 605.039C1266.26 607.597 1266 610.398 1266 613L1269 613C1269 608.156 1270.46 601.814 1265 600L1265 593L1194 593z"/>
<path style="fill:#ffffff; stroke:#ffffff;" d="M1359 593L1363.61 603.17C1365.96 609.179 1367.96 615.252 1370.9 621.025L1375.46 628.17L1385.24 651.961C1388.16 658.329 1391.49 664.45 1394 671L1466 671C1464.85 662.374 1458.2 656.304 1453.33 649.576C1450.99 646.342 1449.77 642.47 1447.76 639.039L1439.48 627.729L1436.72 622.664C1431.68 614.949 1424.17 607.143 1422 598L1414.96 593.599C1409.82 591.711 1402.42 593 1397 593L1359 593M1196 595C1197.34 605.633 1197 616.285 1197 627L1197 670L1281 670C1280.64 662.94 1278.4 655.956 1277.26 649C1275.95 640.979 1276.56 632.292 1273.29 624.714C1271.68 620.991 1272.58 616.057 1268.82 613.604L1266 613C1266 610.104 1266.34 606.933 1265.7 604.089C1264.97 600.821 1263.25 598.451 1263 595L1196 595M1555 604C1558.06 610.508 1565.04 615.31 1570.1 620.373L1602.63 652.419L1614.46 664.259C1616.62 666.455 1618.57 669.277 1621.29 670.821C1623.62 672.146 1626.41 671.986 1629 671.999L1641 672C1640.86 670.789 1640.92 669.333 1640.26 668.23C1638.52 665.325 1635.06 664.629 1632.46 662.674C1629.62 660.533 1626.75 657.798 1624.24 655.269L1620.51 651.219L1609.01 643.341L1595.13 632.25L1588.56 625.813L1575 617.1L1564.29 609.407C1561.12 607.147 1558.82 604.996 1555 604M743 671C747.084 671 752.112 671.759 755.985 670.258C761.24 668.222 763.186 662.444 766.903 658.683C770.219 655.328 774.58 653.294 777.999 649.981C781.903 646.2 784.175 641.634 787.704 637.666C792.376 632.414 799.995 629.039 802 622C793.551 623.124 789.923 630.592 783.714 635.576L766.289 647.721C762.979 650.432 761.108 654.283 757.857 656.961C752.385 661.467 746.529 664.573 743 671z"/>
<path style="fill:#2f2f2b; stroke:#2f2f2b;" d="M979 723L980 723C980.644 716.706 983.691 711.007 985.459 705L987.914 695C988.969 691.945 989.205 688.026 992.228 686.179C996.089 683.82 1002.66 685 1007 685L1043 685L1068 684.961C1070.13 684.872 1074.57 683.526 1076.1 685.643C1077.23 687.205 1075.91 689.415 1075.53 691.001C1074.82 693.946 1075.01 696.994 1075 700C1075 702.3 1075.13 704.682 1074.46 706.911L1072.14 713.089L1071.7 722L1069.14 730C1068.56 734.284 1069.59 738.748 1068.7 743L1066 751C1074.52 748.252 1072.36 740.048 1073.11 733.004L1075.73 724.83L1076.22 715L1078.73 707C1079.28 704.061 1078.92 700.972 1079.02 698C1079.07 696.29 1079.2 694.649 1079.68 693C1080.56 690.02 1083.37 685.74 1080.97 682.742C1078.93 680.182 1073.86 681.001 1071 681L1045 681L1008 681C1003.51 681 996.432 679.673 992.429 682.028C988.58 684.292 987.736 688.116 986.475 692L984.298 698L983.505 704C981.822 710.498 979.076 716.138 979 723z"/>
<path style="fill:#373533; stroke:#373533;" d="M1087 705L1088 705C1088 698.83 1086.66 690.852 1092.3 686.603C1094.81 684.72 1098.04 685.006 1101 685L1117 685L1181 685L1181 751L1184 751L1184 701L1184 689.001C1183.96 686.866 1184.05 684.362 1182.4 682.742C1180.73 681.114 1178.17 681.084 1176 681.015L1162 681L1109 681L1096 681.001C1094 681.015 1091.29 680.702 1089.6 682.028C1087.91 683.359 1087.87 686.056 1087.58 688.001C1086.73 693.622 1087 699.33 1087 705z"/>
<path style="fill:#292927; stroke:#292927;" d="M957 745L957 751L972 751C972.386 747.126 973.26 742.862 974.529 739.17L976.701 733.911L977.259 728C979.085 716.986 980.999 706.257 981 695C975.574 696.647 976.193 701.386 974.138 706C969.756 715.839 967.714 726.624 962.544 736C960.518 739.674 960.921 742.838 957 745z"/>
<path style="fill:#252523; stroke:#252523;" d="M868 916L869 916C870.671 903.605 875.799 891.411 880.719 880C900.28 834.635 938.653 799.828 986 785.721C1009.62 778.684 1033.64 779 1058 779C1052.48 776.522 1045.94 777 1040 777C1028.54 777 1017.36 777.286 1006 778.87C976.122 783.033 946.845 795.413 924 815.289C907.13 829.967 893.724 848.061 883.753 868C878.728 878.05 874.514 888.232 871.28 899C869.555 904.745 868.05 909.959 868 916z"/>
<path style="fill:#252723; stroke:#252723;" d="M869 916L868 916L868 913L867 913C866.569 918.413 865.102 923.642 864.275 929C862.846 938.255 861.729 947.666 861.089 957C859.413 981.479 861.496 1007.06 866.399 1031C868.275 1040.16 870.742 1049.18 873.864 1058C875.264 1061.95 876.461 1066.59 880 1069L872.427 1046C869.457 1035.59 867.62 1024.73 866.285 1014L864.911 993C864.519 987.278 863.873 981.77 864.015 976L864.961 966C866.154 938.75 870.482 911.377 881.012 886C887.242 870.985 895.597 857.08 905.167 844L910.414 836C914.773 830.334 920.592 824.812 926 820.144L934 814.875C940.624 810.337 946.863 805.549 954 801.781C969.474 793.611 985.791 787.857 1003 784.611C1011.65 782.979 1020.25 782.51 1029 781.911C1033.38 781.61 1037.58 780.908 1042 781.015L1051 781.911C1062.73 782.714 1074.34 783.616 1086 785.424C1112.11 789.474 1137.78 795.876 1164 799.282C1176.45 800.898 1188.85 800.915 1200 794.572C1203.3 792.692 1207.85 790.654 1209.4 786.931C1210.04 785.372 1209.95 783.644 1210 782C1205.24 783.803 1201.36 786.969 1197 789.546C1191.81 792.617 1186 794.921 1180 795.711C1168.92 797.168 1156.91 794.191 1146 792.438C1124.27 788.946 1102.76 783.832 1081 780.439C1074.26 779.389 1066.82 778.611 1060 778.455L1045 779C1037.4 779 1029.57 778.45 1022 779.17C986.771 782.523 951.712 793.975 925 818.076C911.799 829.986 900.025 843.603 891.012 859C883.966 871.035 878.037 883.735 873.671 897C871.648 903.143 869.528 909.537 869 916z"/>
<path style="fill:#272925; stroke:#272925;" d="M917 1120C911.538 1112.24 904.337 1105.74 898.745 1098C887.783 1082.84 880.052 1065.89 874.721 1048C870.062 1032.36 868.026 1016.2 866.911 1000C862.865 941.255 874.572 878.425 915.914 834.004C922.991 826.401 930.609 819.306 939 813.155C948.837 805.944 959.712 800.162 971 795.604C985.937 789.573 1001.97 785.722 1018 784.17C1065.83 779.538 1112.12 793.031 1159 800.41C1167.84 801.802 1178.13 803.376 1187 801.482C1191.2 800.585 1195.2 798.694 1199 796.741C1203.29 794.537 1207.65 792.301 1210 788C1202.52 792.147 1195.54 797.66 1187 799.482C1175.84 801.863 1163.06 799.267 1152 797.414L1099 787.424C1083.38 784.606 1067.79 782.992 1052 781.911C1046.95 781.564 1042.1 780.89 1037 781.015C1017.37 781.495 997.79 784.678 979 790.435C968.249 793.729 957.646 798.866 948 804.604L933 814.875L925 820.144C919.927 824.522 914.503 829.686 910.414 835L905.9 842C899.24 851.454 892.941 860.625 887.753 871C872.953 900.596 866.401 932.114 864.961 965L864.015 975C863.857 981.438 864.473 987.613 864.911 994C865.625 1004.43 866.055 1014.63 867.754 1025C869.9 1038.1 873.546 1050.41 877.677 1063L880.807 1074C884.948 1083.57 891.32 1092.89 897.808 1101C903.164 1107.7 909.098 1116.31 917 1120z"/>
<path style="fill:#292927; stroke:#292927;" d="M1210 782C1209.97 784.279 1210.15 786.76 1208.97 788.817C1207.49 791.405 1204.48 793.064 1202 794.547C1196 798.134 1189.09 801.615 1182 801.96C1172.18 802.438 1162.66 800.696 1153 799.272C1132.2 796.206 1111.75 791.151 1091 787.754C1070.93 784.467 1050.36 782.148 1030 783.039C993.724 784.628 956.728 796.207 929 820.289C919.532 828.512 910.745 837.807 903.428 848C893.9 861.273 886.194 875.716 880.425 891C872.177 912.853 868.506 935.828 866.911 959C864.191 998.49 867.362 1040.98 885.37 1077C892.544 1091.35 902.062 1104.29 912.975 1116C919.85 1123.38 926.713 1129.6 935 1135.41C943.879 1141.63 953.334 1147.33 963 1152.24C968.45 1155.01 973.933 1157.96 980 1159L980 1158C944.744 1143.32 910.96 1117.46 891.873 1084C874.25 1053.11 868 1017.16 868 982C868 945.12 873.223 907.236 890.259 874C896.894 861.057 905.279 849.026 914.729 838C922.166 829.323 930.726 821.45 940 814.745C949.521 807.862 960.109 801.9 971 797.452C1010.41 781.356 1053.86 783.007 1095 790.424C1114.68 793.973 1134.21 798.492 1154 801.421C1164.06 802.91 1174.82 805.167 1185 803.7C1194.37 802.349 1201.67 796.893 1210 793L1210 801L1211 801C1211 795.099 1212.29 787.469 1210 782z"/>
<path style="fill:#292b27; stroke:#292b27;" d="M980 1158L979 1160C995.338 1166.34 1010.93 1174.59 1027 1181.58L1048 1190.63L1055 1192.51C1060.49 1194.35 1065.98 1197.56 1071 1200.43C1091.39 1212.09 1110.48 1227.46 1120.89 1249C1134.18 1276.5 1131.39 1313.2 1113.24 1338C1104.99 1349.27 1093.71 1357.96 1081 1363.69C1066.15 1370.38 1050.05 1372 1034 1372C1020.39 1372 1007.15 1371.18 994 1367.28C981.36 1363.53 969.039 1358.17 958 1350.92C921.17 1326.72 898.663 1285.27 886.28 1244C883.019 1233.13 880.226 1222.13 878 1211C877.018 1206.09 875.65 1201.02 875.376 1196L875.741 1189L874 1173L873 1173L873 1178C869.992 1177.11 863.359 1175.53 861.042 1178.6C859.887 1180.14 860.383 1182.26 860.58 1184L861 1193L861.961 1211L862.089 1226L862.999 1237C863.067 1251.04 864.347 1265 864.961 1279L868.039 1362C869.09 1386 871 1409.93 871 1434C874.708 1432.35 877.6 1429.74 881 1427.55C886.837 1423.78 893.095 1421.14 900 1420.29C908.38 1419.25 916.869 1421.79 925 1423.58L961 1431.77C994.337 1439.62 1028.7 1444.46 1063 1442.96C1070.36 1442.64 1077.7 1441.19 1085 1440.28C1107.33 1437.51 1129.43 1432.11 1150 1422.69C1206.38 1396.88 1246.33 1345.13 1262.57 1286C1270.97 1255.44 1272.76 1223.57 1271.99 1192C1271.79 1183.98 1270.07 1176.03 1270 1168L1269 1168L1269 1173L1268 1173C1267.77 1161.62 1264.55 1149.76 1261 1139C1256.16 1124.34 1249.77 1110.43 1240.52 1098C1231 1085.21 1218.69 1074.63 1206 1065.13C1175.1 1041.99 1139.28 1027 1104 1012C1085.46 1004.12 1066.52 996.868 1049 986.85C1037.14 980.069 1025.57 971.941 1018.45 960C1014.47 953.319 1010.87 944.864 1010.38 937L1010.79 929C1010.51 923.614 1009.64 918.438 1010.17 913C1012.4 889.956 1026.23 867.747 1048 858.429C1070.51 848.796 1095 853.691 1116 864.781C1130.35 872.356 1142.62 883.791 1153.13 896C1165.45 910.312 1176.25 926.115 1184.75 943C1189.73 952.888 1194.48 962.827 1198.85 973L1202.58 981.995C1203.17 983.452 1203.66 985.245 1204.84 986.357C1206.53 987.945 1208.93 987.361 1211 987.151L1225 985C1224.97 973.019 1222.91 960.947 1222.09 949L1215.91 858C1214.49 837.353 1212 816.727 1212 796L1211 796L1211 801L1210 801L1210 793C1200.61 795.974 1193.22 802.728 1183 803.826C1175.34 804.649 1167.56 803.182 1160 802.13C1142.18 799.653 1124.7 795.617 1107 792.424C1089.47 789.261 1071.78 786.307 1054 785.089C1018.72 782.673 983.066 789.241 952 806.312C921.556 823.041 898.828 852.512 885.281 884C872.578 913.524 868 946.084 868 978C868 984.631 867.636 991.383 868.089 998C870.803 1037.63 881.731 1077.47 908.289 1108C917.318 1118.38 927.842 1127.42 939 1135.42C947.84 1141.76 957.279 1147.37 967 1152.25C971.26 1154.38 975.411 1156.68 980 1158z"/>
<path style="fill:#252723; stroke:#252723;" d="M480 791L480 810C480.009 814.175 479.619 817.546 484 819L484.019 803C484.138 800.256 484.576 797.551 487.148 796.028C491.378 793.523 499.244 795 504 795L544 795L692 795L692 791L480 791M1319 791L1319 818L1322 818L1322.04 803.001C1322.21 800.323 1322.77 797.683 1325.23 796.179C1329.49 793.573 1337.19 795 1342 795L1381 795L1527 795L1527 791L1319 791z"/>
<path style="fill:#292b27; stroke:#292b27;" d="M1714 791L1714 808C1714 810.767 1713.51 814.202 1714.6 816.816C1716.33 820.928 1721.88 823.697 1724.81 827.004C1731.34 834.373 1733.57 843.351 1732.91 853C1731.83 868.76 1726.68 883.78 1722.87 899L1699.88 986L1662.12 1130C1651.33 1171 1639.91 1211.87 1629.63 1253C1623.5 1277.5 1616.99 1302.03 1609 1326C1604.49 1339.53 1599.92 1353.36 1593.22 1366C1584.96 1381.59 1569.28 1398.26 1551 1401L1551 1429L1708 1429L1708 1402C1704.19 1401.99 1700.66 1401.83 1697 1400.64C1693.85 1399.62 1690.71 1398.29 1688 1396.36C1672.39 1385.24 1671.27 1364.5 1672.04 1347C1672.31 1340.94 1673.91 1334.96 1674.92 1329C1677.66 1312.75 1681.05 1296.95 1685.27 1281L1700.88 1220C1703.65 1209.48 1707.42 1198.76 1709 1188C1722.02 1188.04 1735.52 1191.02 1748 1194.58C1806.44 1211.26 1856.49 1260.38 1867.42 1321C1869.47 1332.31 1870.93 1343.44 1869.83 1355C1868.43 1369.74 1865.37 1383.93 1853 1393.47C1849.97 1395.81 1846.56 1397.56 1843 1398.94C1840.71 1399.82 1837.54 1400.36 1836.03 1402.51C1834.44 1404.77 1835 1408.4 1835 1411L1835 1429L2072 1429L2072 1402C2053.32 1400.36 2042.52 1383.82 2036.01 1368C2030.17 1353.81 2026.03 1338.81 2022.12 1324L2005.63 1258L1941.52 997L1919.63 908C1914.72 888.38 1908.23 868.297 1907.09 848C1906.63 839.718 1911.36 830.841 1917.09 825.093C1919.53 822.646 1923.24 820.872 1924.97 817.816C1926.43 815.248 1926 811.834 1926 809L1926 791L1714 791z"/>
<path style="fill:#292927; stroke:#292927;" d="M483 820C488.451 824.149 494.726 828.169 498.455 834.002C510.718 853.18 500.527 879.127 495.151 899C487.865 925.935 480.672 952.938 473.873 980C457.329 1045.85 439.15 1111.33 421.884 1177C408.905 1226.36 397.125 1276.25 381.975 1325C375.707 1345.17 368.551 1367.22 355.331 1384C349.764 1391.07 342.729 1396.97 335 1401.55C331.486 1403.63 325.319 1404.84 323.028 1408.39C321.799 1410.3 322.016 1412.84 322.001 1415L322 1429L323 1429L323.004 1417C323.035 1414.77 322.944 1412.25 324.179 1410.28C325.489 1408.19 327.861 1407.47 330.004 1406.55C333.113 1405.22 336.125 1403.72 339 1401.93C347.342 1396.75 354.318 1390.03 359.958 1382C367.992 1370.55 373.021 1357.08 377.692 1344C382.975 1329.21 387.74 1314.17 391.849 1299C417.26 1205.17 440.769 1110.83 466.151 1017L490.424 925L499.884 889C502.483 879.115 505.207 869.261 505.91 859C506.568 849.404 505.076 838.981 499.363 831C496.105 826.449 489.874 823.109 487.742 817.911C485.569 812.612 487 804.656 487 799L692 799L692 795L542 795L502 795L492 795.005C490.131 795.04 487.949 794.939 486.318 796.028C483.998 797.576 484.051 800.516 484.005 803C483.897 808.741 484.339 814.374 483 820M1320 818L1320 819L1326 819L1326 799L1527 799L1527 795L1379 795L1340 795C1335.67 795 1328.18 793.6 1324.43 796.179C1321.91 797.913 1322.04 801.283 1322 804C1321.94 808.743 1322.97 814.079 1320 818z"/>
<path style="fill:#292b27; stroke:#292b27;" d="M487 799L487 811C487.004 813.543 486.729 816.43 487.742 818.83C489.776 823.647 495.422 826.933 498.61 831C504.455 838.457 506.545 848.689 505.91 858C505.211 868.26 502.483 878.116 499.884 888L490.424 924L466.151 1016C440.769 1109.83 417.26 1204.17 391.849 1298C387.74 1313.17 382.975 1328.21 377.692 1343C373.021 1356.08 367.992 1369.55 359.958 1381C354.283 1389.08 347.299 1395.94 339 1401.3C336.133 1403.15 333.125 1404.75 330.004 1406.13C328.017 1407.01 325.495 1407.63 324.179 1409.51C322.891 1411.35 323.034 1413.87 323.004 1416L323 1429L474 1429L474 1402C470.191 1401.99 466.657 1401.83 463 1400.64C459.849 1399.62 456.709 1398.29 454 1396.36C438.395 1385.24 437.272 1364.5 438.039 1347C438.305 1340.94 439.915 1334.96 440.919 1329C443.656 1312.75 447.045 1296.95 451.265 1281L466.884 1220C469.65 1209.48 473.417 1198.76 475 1188C497.555 1188.06 520.682 1195.49 541 1204.74C544.91 1206.52 549.183 1206.89 553 1208.88C600.694 1233.75 637.061 1283.07 642.075 1337C642.784 1344.63 643.562 1352.31 642.83 1360C641.689 1371.98 639.167 1384.44 631.331 1393.96C627.736 1398.33 622.974 1401.85 618 1404.51C614.87 1406.18 610.01 1407.08 608.028 1410.27C606.812 1412.23 607.016 1414.8 607.001 1417L607 1429L837 1429L837 1409C818.391 1406.21 807.594 1389.12 801.204 1373C787.223 1337.74 779.799 1299.77 770.87 1263C749.403 1174.61 727.688 1086.25 705.627 998L684.627 913L678.127 886C676.194 878.259 673.811 870 673.376 862L673.791 854C673.515 848.672 672.494 844.203 674.468 839C676.387 833.94 679.26 828.936 683.093 825.093C685.534 822.647 689.236 820.872 690.972 817.816C692.137 815.765 691.984 813.273 691.999 811L692 799L487 799M1326 799C1326 805.776 1327.38 813.915 1324 820C1328.58 821.855 1334 822.611 1338 825.548C1356.77 839.328 1357.12 864.909 1358.04 886L1358.96 895C1360.14 921.889 1359 949.083 1359 976L1359 1215L1359 1292C1359 1311.69 1359.25 1331.38 1357.91 1351C1356.99 1364.47 1355.58 1380.43 1348.03 1392C1345.02 1396.62 1340.59 1400.85 1336 1403.9C1333.32 1405.68 1328.9 1406.77 1327.03 1409.5C1325.77 1411.33 1326.02 1413.89 1326 1416L1326 1429L1527 1429L1527 1401C1509.21 1396.77 1501.32 1380.72 1499 1364C1495.05 1335.46 1495 1306.78 1495 1278L1495 929C1495 919.692 1494.63 910.299 1495.04 901L1495.96 892L1496.09 878L1497.71 867C1498.39 861.534 1498.59 856.429 1499.71 851C1502.8 836.108 1511.31 822.727 1527 819L1527 799L1326 799z"/>
<path style="fill:#292927; stroke:#292927;" d="M1332 822C1334.6 826.867 1339.26 828.673 1342.98 832.429C1346.59 836.065 1349.2 841.224 1350.91 846C1354.85 856.993 1355.53 869.455 1356.04 881L1356.96 890L1357 915L1357 1022L1357 1236L1357 1304C1357 1320.67 1357.41 1337.4 1355.83 1354C1354.64 1366.5 1353.44 1380.21 1346.45 1391C1343.22 1396 1339.06 1399.83 1334 1402.93C1331.28 1404.6 1326.85 1405.66 1325.03 1408.42C1323.79 1410.3 1324.02 1412.86 1324 1415L1324 1429L1326 1429L1326 1417C1326.02 1414.8 1325.81 1412.23 1327.03 1410.27C1328.86 1407.33 1333.18 1406.27 1336 1404.53C1340.66 1401.65 1345.03 1397.6 1348.03 1393C1355.58 1381.43 1356.99 1365.47 1357.91 1352C1359.25 1332.38 1359 1312.69 1359 1293L1359 1215L1359 972C1359 935.181 1361.22 897.512 1356.13 861C1353.99 845.615 1348.59 827.298 1332 822z"/>
<path style="fill:#272925; stroke:#272925;" d="M493 827C494.81 834.914 500.287 841.687 500.91 850C501.579 858.936 499.843 867.254 498.438 876C496.154 890.224 492.286 904.104 488.424 918L464.424 1009L446.116 1079L409.884 1216C399.788 1254.4 390.644 1293.23 378.33 1331C371.645 1351.51 363.677 1371.35 349.727 1387.98C345.172 1393.41 338.232 1397.96 332 1401.22C328.661 1402.96 323.323 1404.07 321.179 1407.39C319.768 1409.58 320.014 1412.52 320.001 1415L320 1429L322 1429L322.001 1416C322.016 1413.76 321.838 1411.22 323.028 1409.21C325.321 1405.34 331.293 1404.21 335 1402.12C342.35 1397.98 349.179 1392.53 354.535 1386C368.327 1369.19 375.605 1346.5 381.975 1326C397.125 1277.25 408.905 1227.36 421.884 1178C439.324 1111.67 457.735 1045.54 474.373 979C479.72 957.62 485.396 936.274 491.151 915C495.091 900.434 499.59 885.841 502.389 871C505.205 856.07 505.991 837.583 493 827M1341 830C1341.82 833.574 1343.56 836.64 1345 840L1347 839L1350.62 851C1352.29 857.507 1353.19 864.32 1353.83 871C1355.2 885.354 1354.41 899.619 1355.04 914L1355.96 923C1356.63 938.273 1356 953.712 1356 969L1356 1061L1356 1241C1356 1261.98 1356.5 1283.03 1355.99 1304L1355.01 1315C1354.67 1329.06 1355.17 1342.98 1353.83 1357C1352.92 1366.54 1352.12 1378.59 1346.93 1386.91C1343.12 1393.01 1336.52 1398.33 1330.71 1402.45C1328.15 1404.26 1324.67 1405.27 1323.03 1408.13C1321.7 1410.45 1322.01 1413.44 1322 1416L1322 1429L1324 1429L1324 1416C1324.02 1413.77 1323.83 1411.22 1325.03 1409.22C1326.85 1406.19 1331.1 1405.22 1334 1403.54C1339.07 1400.59 1343.25 1396.94 1346.45 1392C1353.51 1381.12 1355.04 1366.68 1355.91 1354C1357.23 1334.69 1357 1315.37 1357 1296L1357 1220L1357 984C1357 952.698 1357.75 921.292 1356.99 890L1356.01 879C1355.6 863.103 1354.29 840.828 1341 830z"/>
<path style="fill:#272725; stroke:#272725;" d="M1346 839C1346.5 845.135 1349.19 850.153 1350.54 856.015C1352.84 866.009 1353.21 876.806 1353.91 887C1354.59 896.95 1353.77 907.031 1354.01 917L1354.99 928C1355.49 948.64 1355 969.353 1355 990L1355 1160L1355 1254C1355 1269.62 1355.64 1285.4 1354.96 1301L1354.04 1310C1353.38 1325.04 1354.26 1339.99 1352.83 1355C1351.89 1364.85 1349.31 1374.26 1348 1384L1349 1384C1352.65 1371.05 1354.37 1357.42 1354.96 1344L1355.01 1316L1355.99 1305C1356.53 1282.7 1356 1260.31 1356 1238L1356 978C1356 959.684 1356.43 941.31 1355.99 923L1355.01 912C1354.73 900.282 1355.29 888.671 1354.17 877C1353.34 868.268 1352.96 859.581 1350.87 851C1349.83 846.753 1348.65 842.505 1346 839z"/>
<path style="fill:#252723; stroke:#252723;" d="M499 842C499 866.462 491.49 889.569 485.151 913L460.884 1005L411.884 1191C400.836 1233.02 390.873 1275.5 377.975 1317C371.663 1337.31 365.124 1359.88 352.101 1377C346.63 1384.19 339.863 1390.63 332 1395.13L323.005 1399.55C321.266 1400.3 319.173 1400.88 318.028 1402.51C316.443 1404.77 317.001 1408.4 317 1411L317 1429L320 1429L320.001 1416C320.014 1413.43 319.815 1410.52 321.179 1408.21C323.326 1404.59 328.465 1403.5 332 1401.73C338.142 1398.65 345.191 1394.18 349.727 1388.95L353.669 1383.09L360.796 1374C368.944 1360.77 374.377 1344.79 378.975 1330C390.566 1292.7 399.955 1254.76 409.884 1217C429.603 1142 448.901 1066.86 469.151 992L487.884 921C491.522 907.164 496.381 893.213 498.156 879C499.216 870.511 501.014 862.62 501 854C500.993 849.794 501.003 845.768 499 842M1349 851C1349.01 862.385 1351.86 873.583 1352 885C1352.41 919.656 1352 954.342 1352 989L1352 1193L1352 1282C1352 1297.23 1352.95 1312.81 1351.91 1328C1351.18 1338.67 1350.59 1349.36 1349.28 1360C1348.32 1367.84 1347.24 1375.83 1343.62 1383C1340.62 1388.95 1335.73 1393.79 1330 1397.12C1327.14 1398.79 1322.01 1399.84 1320.03 1402.56C1318.42 1404.77 1319 1408.44 1319 1411L1319 1429L1322 1429L1322 1417C1322.01 1414.39 1321.74 1411.44 1323.03 1409.05C1324.83 1405.72 1328.66 1404.54 1331.58 1402.45C1336.93 1398.6 1343.58 1393.71 1346.83 1387.83C1348.27 1385.22 1348.44 1381.87 1349.13 1379C1351.02 1371.12 1352.35 1363.09 1352.91 1355C1353.9 1340.64 1353.66 1326.4 1354.01 1312L1354.99 1301C1355.69 1272.04 1355 1242.97 1355 1214L1355 1003C1355 977.692 1355.61 952.3 1354.99 927L1354.09 918L1354 902C1354 890.24 1353.42 878.682 1352.17 867C1351.6 861.682 1351.55 855.791 1349 851z"/>
<path style="fill:#292927; stroke:#292927;" d="M673 858C673.201 867.734 675.778 877.591 678.127 887L684.627 914L707.127 1005L775.873 1285C781.475 1307.4 786.631 1329.99 793.656 1352C796.675 1361.46 799.526 1370.99 803.781 1380C810.268 1393.74 820.634 1407.56 837 1409L837 1429L838 1429L838 1402C820.701 1400.48 809.664 1385.79 803.281 1371C789.72 1339.57 783.39 1305.06 775.127 1272L732.626 1099L704.884 987L682.873 897L677.003 873C675.975 868.036 675.639 862.377 673 858M1010 933C1010.1 937.805 1010.91 942.409 1012.35 947C1014.72 954.568 1018.21 961.883 1023.33 967.999C1029.7 975.61 1038.46 981.392 1047 986.28C1059.5 993.434 1072.65 999.4 1086 1004.8L1104 1012.42C1138.94 1027.33 1174.38 1042.2 1205 1065.13C1218.35 1075.12 1231.43 1086.4 1241.25 1100C1250.31 1112.52 1256.56 1126.36 1261.33 1141C1264.64 1151.16 1267.54 1162.29 1268 1173L1269 1173C1269 1163.27 1267.24 1154.41 1264.87 1145C1262.22 1134.42 1258.98 1123.66 1253.74 1114.04L1248.22 1105.96C1236.23 1088.07 1221.52 1073.78 1204 1061.29C1173.58 1039.6 1139.18 1025.01 1105 1010.42C1080.65 1000.03 1053.41 991.172 1033 973.7C1028.53 969.874 1023.51 965.296 1020.78 960C1018.05 954.707 1015.66 948.636 1013.7 943C1012.51 939.604 1011.88 936.074 1010 933z"/>
<path style="fill:#ffffff; stroke:#ffffff;" d="M542 935C532.376 969.166 524.118 1003.73 514.849 1038L501.116 1090C498.754 1098.98 495.882 1107.9 494 1117C501.247 1117.31 508.028 1119.58 515 1121.37C535.016 1126.52 553.646 1134.39 571 1145.7C578.666 1150.69 585.271 1157.17 593 1162C589.945 1146.26 586.02 1130.64 582.499 1115L558.651 1007L547.499 957C545.879 949.839 545.211 941.628 542 935M1776 935C1766.38 969.166 1758.12 1003.73 1748.85 1038L1735.12 1090C1732.75 1098.98 1729.88 1107.9 1728 1117C1735.57 1117.33 1742.72 1119.73 1750 1121.63C1769.65 1126.75 1787.96 1134.6 1805 1145.7C1812.67 1150.69 1819.27 1157.17 1827 1162C1817.83 1114.74 1804.89 1068.21 1795.45 1021C1791.77 1002.6 1787.66 984.294 1783.5 966L1779.28 947C1778.43 942.952 1777.81 938.73 1776 935z"/>
<path style="fill:#292927; stroke:#292927;" d="M544 937C545.132 940.64 547.879 943.322 549.072 947.001C551.06 953.132 552.035 959.711 553.424 966L561.424 1002L583.79 1103L593.119 1145L595.785 1157C596.143 1158.82 596.727 1161.01 596.087 1162.83C594.984 1165.97 592.021 1164.6 589.996 1163.27L576 1152.89C559.616 1141.53 541.209 1133.35 522 1128.15L509 1125C503.497 1123.86 498.703 1123.41 496 1118L500 1118L500 1117L494 1117C494.155 1119.05 494.186 1121.02 495.603 1122.69C497.437 1124.85 500.387 1125.26 503 1125.8L515 1128.38C536.726 1133.81 557.644 1142.81 576 1155.72C581.037 1159.26 585.594 1164.22 591 1167.14C593.214 1168.34 596.287 1168.96 597.968 1166.55C600.197 1163.36 597.899 1157.39 597.119 1154L589.79 1121C580.067 1075.96 570.207 1030.91 559.881 986L551.881 950C550.571 944.302 550.57 938.402 544 937z"/>
<path style="fill:#272925; stroke:#272925;" d="M544 940L548.33 951C552.704 967.448 555.753 984.379 559.424 1001L579.424 1091L588.651 1133C590.893 1142.91 593.698 1152.92 595 1163C587.335 1157.93 580.671 1151.47 573 1146.35C556.174 1135.13 537.611 1126.81 518 1121.87C510.503 1119.99 503.793 1118.01 496 1118C497.615 1123.37 501.998 1123.78 507 1124.8L518 1127.37C538.3 1132.51 557.755 1140.94 575 1152.89L589.996 1163.97C591.669 1164.99 594.241 1166.32 595.806 1164.38C598.284 1161.31 595.408 1154.35 594.651 1151L586.424 1114L557.651 984L550.79 953C549.661 947.777 549.037 942.641 544 940z"/>
<path style="fill:#272725; stroke:#272725;" d="M545 944C545.294 950.438 547.392 956.712 548.715 963L557.349 1002L581.116 1109L589.715 1148C590.71 1152.73 590.993 1159.95 595 1163C594.382 1155.24 592.101 1147.59 590.424 1140L583.424 1108L559.881 1002L551.21 963C549.873 956.805 549.474 948.716 545 944z"/>
<path style="fill:#272925; stroke:#272925;" d="M1019 957C1022.11 966.386 1031.11 973.528 1039 978.974C1056.85 991.302 1077.17 998.96 1097 1007.42C1152.92 1031.28 1216.69 1055.77 1250 1110L1251 1110C1248.51 1101.54 1242.46 1093.73 1236.92 1087C1224.17 1071.53 1208 1058.73 1191 1048.19C1163.85 1031.35 1135.34 1018.35 1106 1005.85C1086.84 997.687 1067.23 990.311 1049 980.138C1043.06 976.825 1037.17 973.129 1032 968.7C1027.55 964.887 1023.8 960.385 1019 957z"/>
<path style="fill:#7d7977; stroke:#7d7977;" d="M2190 968L2192.71 982L2193.46 993L2197.5 1007C2199.29 1014.56 2199.99 1022.39 2201.26 1030C2202.05 1034.75 2204.24 1039.19 2204.82 1044C2205.61 1050.62 2204.51 1057.37 2205.17 1064L2206.83 1074C2208.19 1087.61 2208 1101.32 2208 1115C2208 1124.97 2208.4 1135.04 2207.96 1145L2206.17 1161C2205.6 1167.02 2205.72 1173 2204.68 1179L2202.43 1190L2200.68 1205L2198.5 1213L2196.68 1226C2196.05 1229.76 2195.08 1233.15 2195 1237L2197 1237C2197.23 1231.59 2197.48 1225.21 2199.13 1220.04L2202.56 1211.96L2204.32 1200L2206.83 1188L2207.17 1177C2208.15 1166.72 2209.51 1156.32 2209.96 1146C2210.45 1134.71 2210 1123.3 2210 1112C2210 1100.74 2210.68 1089.23 2209.91 1078C2209.33 1069.56 2207.31 1061.37 2206.29 1053L2205.83 1039C2205.39 1034.9 2203.88 1031.01 2203.01 1027L2201.68 1014L2195.77 986C2194.7 980.296 2195 971.787 2190 968z"/>
<path style="fill:#2b2d29; stroke:#2b2d29;" d="M124 1166C124 1169.86 123.57 1174.02 124.259 1177.83L128.701 1193L129.29 1201L131.741 1211L132.465 1219L136.482 1233L140.514 1256C144.992 1273.97 151.138 1291.47 157.138 1309L161.985 1324C162.751 1326.66 163.129 1329.48 164.296 1332C166.571 1336.92 170.164 1341.39 173 1346L174 1346C173.585 1343.09 172.348 1340.79 171.544 1338L170.316 1331.17C167.525 1322.82 162.204 1315.13 158.781 1307C156.651 1301.94 156.683 1297.29 155.776 1292.04L153.405 1285.83L151.545 1278.29L145.053 1261C143.905 1257.98 142.257 1255.17 141.529 1252C140.185 1246.14 142.022 1239.9 140.586 1234.09L138.273 1227.91C137.585 1224.59 137.838 1221.28 136.755 1218C135.29 1213.57 132.981 1209.71 132.3 1205L131.535 1194L127.17 1177.91C126.152 1173.84 126.189 1169.65 124 1166z"/>
<path style="fill:#252723; stroke:#252723;" d="M853 1169C853 1178.42 854.269 1187.63 854.911 1197L855.039 1212L855.961 1221L861.039 1348L863.961 1403L864.039 1417L865 1440C869.676 1435.42 868.219 1427.06 867.424 1421C866.683 1415.35 867.209 1409.67 866.961 1404L866 1389C865.999 1375.66 864.622 1362.31 864.039 1349L860.961 1267L860.039 1258L859.911 1243L859.015 1234L858.911 1220L858.015 1211C857.876 1205.33 858.316 1199.64 857.576 1194C857.05 1189.99 856.929 1186.04 857.005 1182C857.046 1179.79 856.983 1177.3 858.603 1175.56C861.865 1172.08 868.707 1173 873 1173L873 1169L853 1169z"/>
<path style="fill:#292927; stroke:#292927;" d="M868 1437C872.061 1433.02 871 1427.35 871 1422C871 1409.36 869.952 1396.6 869.089 1384L868.961 1370L866.039 1315L865.961 1301C865.013 1279.35 863.104 1257.69 862.999 1236L862.089 1225L861.961 1210L861 1194L860.835 1185C860.695 1183.17 860.137 1181.02 861.117 1179.32C863.29 1175.54 869.679 1177.21 873 1178L873 1173C868.893 1173 860.85 1171.75 858.028 1175.56C856.731 1177.31 857.015 1179.95 857.001 1182C856.971 1186.38 857.006 1190.66 857.576 1195C858.316 1200.64 857.876 1206.33 858.015 1212L858.911 1221L859.015 1235L859.961 1245L860.039 1259L861.961 1291L865.039 1373L865.961 1382L867.039 1418L868 1437M1052 1191L1052 1192C1061.35 1197.46 1071.16 1202.09 1080 1208.43C1087.32 1213.67 1093.4 1219.88 1100 1225.93L1106.25 1230.74C1108.88 1233.03 1110.99 1236.16 1112.96 1239C1134.08 1269.41 1131.68 1315.29 1106.83 1343C1096.45 1354.56 1082.73 1361.91 1068 1366.28C1053.19 1370.67 1037.27 1371.65 1022 1370.17C1011.12 1369.12 1000.47 1367.65 990 1364.25C967.291 1356.9 946.983 1342.89 931.286 1325C925.319 1318.2 919.276 1310.86 914.746 1303L910.37 1293C900.808 1275.65 892.917 1257.96 887.026 1239C882.25 1223.63 879.246 1207.74 876 1192L875 1192C875.22 1202.64 878.064 1213.7 880.627 1224C885.443 1243.36 891.616 1261.7 899.576 1280C910.094 1304.18 926.512 1326.92 947 1343.54C966.767 1359.58 991.679 1369.41 1017 1371.83C1023.58 1372.46 1030.39 1372 1037 1372C1062.24 1372 1088.53 1365.55 1106.71 1346.83C1131.47 1321.34 1135.95 1277.09 1119.89 1246C1109.99 1226.83 1093.24 1213.08 1075 1202.2C1067.86 1197.94 1060.02 1193.31 1052 1191M547 1206C548.953 1208.99 551.963 1210.37 555 1212.2L565 1218.72C576.498 1226.79 588.86 1236.44 597 1248C598.195 1247.4 597.978 1247.53 599 1246C601.512 1250.85 605.419 1254.72 608.789 1259C613.511 1265 617.781 1271.37 621.573 1278C634.1 1299.89 641 1324.78 641 1350C641 1358.43 640.88 1366.81 638.572 1375C635.749 1385.01 630.614 1393.75 622 1399.79C619.168 1401.78 616.161 1403.38 613.001 1404.77C610.921 1405.69 608.353 1406.42 607.028 1408.42C605.785 1410.3 606.016 1412.86 606.001 1415L606 1429L607 1429L607.001 1418C607.016 1415.72 606.854 1413.18 608.028 1411.13C609.695 1408.22 613.133 1407.25 616 1405.96C618.805 1404.7 621.48 1403.2 623.999 1401.43C633.207 1394.96 637.965 1385.69 640.625 1375C643.7 1362.64 643.511 1349.57 642.166 1337C641.004 1326.15 639.28 1315.44 635.971 1305C627.279 1277.57 610.165 1253.15 589 1233.93C580.609 1226.3 571.716 1219.46 562 1213.6C557.157 1210.68 552.466 1207.58 547 1206z"/>
<path style="fill:#272925; stroke:#272925;" d="M1105 1229C1106.52 1234.86 1110.87 1239.66 1113.68 1245C1116.85 1251.03 1118.64 1257.46 1120.66 1263.91C1122.18 1268.73 1123.86 1272.84 1123.99 1278C1124.21 1287.18 1123.74 1295.93 1122.43 1305C1121.94 1308.36 1121.92 1311.72 1120.96 1315C1118.19 1324.42 1113.13 1331.96 1106.57 1339.09C1101.33 1344.79 1095.57 1351.35 1088.99 1355.53C1063.91 1371.45 1029.12 1371.87 1001 1365.57C989.031 1362.9 978.724 1355.38 967 1352L968 1350C953.129 1342.17 940.402 1331.48 929.171 1319C923.214 1312.38 918.841 1303.65 912 1298C913.655 1303.19 916.965 1307.61 920.152 1312C925.569 1319.46 931.447 1326.51 938 1333C966.379 1361.08 1006.53 1374.12 1046 1370.17C1064.72 1368.3 1082.87 1363.79 1098 1351.98C1118.36 1336.1 1127 1311.14 1127 1286C1127 1276.26 1126.14 1267.29 1123 1258C1119.48 1247.61 1113.64 1235.99 1105 1229M598 1246C599.504 1251.41 603.82 1255.52 607.116 1260C611.792 1266.35 615.957 1273.05 619.691 1280C633.265 1305.26 638.732 1335.68 634.714 1364C633.004 1376.06 628.161 1386.94 618 1394.21C614.93 1396.41 611.524 1397.99 608.001 1399.31C605.962 1400.07 603.359 1400.61 602.028 1402.51C600.442 1404.77 601.001 1408.4 601 1411L601 1429L606 1429L606.001 1416C606.016 1413.77 605.829 1411.22 607.028 1409.22C609.55 1405.03 616.99 1403.66 621 1401.12C628.414 1396.43 633.276 1390.09 636.547 1382C640.968 1371.06 641 1359.59 641 1348C641 1320 631.933 1292.36 616.656 1269C611.34 1260.87 605.371 1252.38 598 1246z"/>
<path style="fill:#252723; stroke:#252723;" d="M1122 1267C1122 1281.32 1121.84 1295.06 1118.11 1309C1116.32 1315.73 1113.5 1322.19 1109.64 1328C1105.29 1334.56 1100.1 1340.54 1094 1345.54C1069.36 1365.73 1034.01 1367.3 1004 1362.56C996.156 1361.32 988.409 1358.75 981 1355.94C976.314 1354.16 971.972 1351.86 967 1351L967 1352L985.961 1360.23C990.35 1362.16 994.279 1364.23 999 1365.35C1015.51 1369.25 1033.19 1370.17 1050 1368.16C1063.83 1366.5 1078.1 1363.22 1089.96 1355.53C1096.11 1351.55 1101.71 1345.47 1106.57 1340.04C1110.33 1335.85 1113.82 1332.07 1116.4 1327C1118.47 1322.91 1120.51 1318.5 1121.48 1314L1122.59 1305C1123.8 1297.25 1124 1289.84 1124 1282C1124 1276.92 1124.24 1271.66 1122 1267z"/>
<path style="fill:#333331; stroke:#333331;" d="M204 1307C204.226 1311.96 206.24 1315.54 207.534 1320.17C209.935 1328.76 211.653 1337.61 215.421 1345.83C217.085 1349.46 220.252 1352.16 221.437 1356.04L222.894 1361.56L226.866 1368.17C228.752 1371.97 229.755 1375.56 234 1377C234.22 1383.92 238.458 1387.24 241.575 1393C243.49 1396.54 244.517 1401.04 245 1405C247.547 1406.37 248.188 1407.22 249 1410C254.228 1412.89 255.176 1418.91 258.518 1423.54L264.47 1430.09L278 1450L279 1450C278.777 1440.74 272.122 1433.87 266.64 1426.91C262.231 1421.32 259.501 1414.94 255.625 1409.05C253.601 1405.98 250.34 1404.07 248.393 1400.95L245.002 1393L237.594 1380L233.691 1370.13C231.7 1366.08 228.172 1363.08 226.112 1358.99C224.503 1355.79 222.685 1352.22 221.54 1348.83L220.441 1344.28L216.813 1337.99C213.492 1330.6 210.098 1322.47 207.714 1314.71L206 1307L204 1307z"/>
<path style="fill:#2d2d29; stroke:#2d2d29;" d="M168 1339C169.379 1344.88 172.952 1350.43 175.367 1356C178.253 1362.65 180.126 1369.64 184.081 1375.83L189.698 1383.01L196.289 1398L206.829 1414.13L212.434 1426.99C216.552 1434.16 222.191 1440.43 226.91 1447.17L232.53 1456.91C239.628 1466.78 247.419 1476.3 254.868 1485.88L262.285 1495.93L267.451 1501.7L273.466 1510.87L284.296 1521.9C288.244 1526 290.842 1531.22 296 1534C292.637 1524.22 283.823 1518.77 277.679 1510.99L271.565 1502.29C264.858 1493.78 257.208 1485.79 250.998 1476.91L243.026 1464.59C236.929 1456.51 227.787 1448.72 227 1438C218.996 1434.42 212.567 1422.54 212 1414C207.11 1411.36 206.247 1405.27 202.91 1401L198.103 1394.96L190.973 1381C187.464 1374.56 183.521 1368.72 180.514 1362C176.976 1354.1 174.716 1344.99 168 1339z"/>
<path style="fill:#2b2d29; stroke:#2b2d29;" d="M936 1606C934.871 1601.54 932.499 1598.76 930.009 1595C925.735 1588.55 921.424 1582.27 916.718 1576.13C913.137 1571.45 909.854 1567.76 908 1562L959 1562L972 1562C974.913 1562.02 978.226 1561.83 980.857 1563.32C986.677 1566.6 987.142 1575.52 990.089 1580.83C991.814 1583.94 993.767 1586.98 995.12 1590.28L996.88 1596.58L1001.12 1606L1002.88 1611.58L1011.41 1628L1016 1640C1008.4 1641.41 1000.7 1641 993 1641L959 1641C962.39 1645.45 969.929 1644 975 1644L1020 1644C1019.95 1639.45 1018.55 1636.24 1017.11 1632C1014.63 1624.68 1011.54 1617.84 1007.63 1611.16L1002.61 1603.99C1001.17 1601.16 1000.96 1597.96 999.907 1595C998.062 1589.79 995.487 1584.87 993.256 1579.83C990.922 1574.56 988.515 1569.1 985.799 1564.02C984.775 1562.1 983.769 1559.74 981.701 1558.74C978.204 1557.05 972.781 1558 969 1558L942 1558L914 1558C911.269 1558 906.115 1557.08 904.198 1559.59C901.822 1562.7 905.688 1566.7 907.161 1569.27L908.954 1572.64L912.292 1576.37L915.134 1581.63L919.471 1586.21L922.54 1590.63L927.12 1595.17C930.078 1598.93 931.708 1603.67 936 1606M1095 1597L1098 1597L1099.74 1604.09C1100.45 1608.11 1099.23 1611.55 1103 1614C1103 1609.79 1103.56 1605.13 1102.7 1601L1100.54 1595L1099.7 1589.09L1097.3 1582.91L1096.86 1577C1096.3 1573 1092.39 1568.32 1095.03 1564.32C1096.37 1562.28 1098.79 1562.12 1101 1562.02L1114 1562L1162 1562L1174 1562.04C1175.88 1562.16 1177.97 1562.35 1179.4 1563.74C1180.82 1565.13 1180.9 1567.15 1180.98 1569L1181 1580L1181 1624L1180.98 1635C1180.88 1637.21 1180.69 1639.48 1178.68 1640.82C1176.78 1642.09 1174.19 1641.97 1172 1642L1160 1642L1112 1642C1117.22 1644.19 1124.38 1643 1130 1643L1166 1643L1178 1643C1179.73 1642.96 1181.94 1643.12 1183.4 1641.97C1185.14 1640.59 1184.96 1637.98 1185 1636L1185 1623L1185 1577L1185 1565C1184.96 1563.27 1185.12 1561.06 1183.97 1559.6C1182.59 1557.86 1179.98 1558.04 1178 1558L1163 1558L1110 1558C1104.64 1558 1094.57 1556.09 1090.6 1560.57C1086.58 1565.12 1090.15 1571.84 1091.78 1576.42L1092.56 1583L1094.95 1590C1095.41 1592.27 1095.07 1594.7 1095 1597z"/>
<path style="fill:#f9f9f9; stroke:#f9f9f9;" d="M743 1561C746.45 1568.24 753.204 1571.32 759.335 1575.82C764.188 1579.39 768.076 1583.26 774 1585C772.609 1578.12 765.65 1572.93 760.975 1568C758.888 1565.79 756.721 1562.78 753.83 1561.6C750.665 1560.31 746.357 1561 743 1561z"/>
<path style="fill:#ffffff; stroke:#ffffff;" d="M770 1561C773.342 1568.16 780.993 1572.03 786.335 1577.65C794.952 1586.73 804.752 1594.58 813.335 1603.67C818.847 1609.5 823.186 1616.3 828.982 1621.91C835.009 1627.74 841.026 1636.93 849 1640.14C852.372 1641.5 856.442 1641 860 1641L882 1641C880.443 1638.15 879.207 1637.5 876 1637C873.631 1628.59 865.783 1622.41 860.262 1616.04L853.624 1607.08L847.018 1600.54L840.755 1591.67L828.246 1578.41C823.33 1573.22 819.81 1564.69 812.83 1561.74C808.854 1560.06 803.229 1561 799 1561L770 1561M832 1562C833.364 1567.62 837.874 1570.72 841.674 1574.83C846.82 1580.4 850.279 1588.7 858 1591C858.683 1597.13 862.763 1601.47 867.374 1605.34C869.668 1607.26 872.389 1608.85 874.161 1611.32L877.39 1617.33L886.449 1628.29C889.478 1632.6 892.438 1637.5 897.001 1640.4C900.954 1642.9 906.527 1642 911 1642C921.669 1642 933.585 1643.48 944 1641C942.19 1634.49 936.731 1630.13 932.986 1624.74C930.868 1621.7 930.74 1619.23 927 1618C926.774 1611.02 922.466 1607.27 918.851 1601.71L913.651 1593.01L906.506 1584.91L900.745 1575.55L898.085 1570.51L894.255 1565.86C892.993 1564 892.241 1562.1 889.867 1561.47C887.639 1560.89 885.23 1561.62 883 1561.83L873 1562L832 1562M996 1561L996 1568C998.527 1569.46 999.233 1571.02 1000.73 1573.49C1003.63 1578.3 1005.71 1582.26 1006 1588L1009 1588C1009.22 1595.58 1012.91 1601.62 1016.64 1608L1021.53 1618.71L1025.73 1626C1027.77 1630.78 1026.87 1637.96 1032.44 1640.23C1034.81 1641.2 1037.5 1640.99 1040 1641L1053 1641L1100 1641L1096.58 1633L1095.7 1627L1093.29 1620L1089.69 1603.09C1088.9 1600.15 1086.62 1598.07 1086.15 1594.99C1085.25 1589.12 1086.04 1582.81 1084.69 1577L1081.58 1570C1080.7 1567.44 1080.97 1564.62 1078.68 1562.74C1076.55 1560.99 1073.6 1561.04 1071 1561L1056 1561L996 1561z"/>
<path style="fill:#a39f9f; stroke:#a39f9f;" d="M1263 1641L1263 1640L1195 1640L1195 1585L1195 1572C1195.05 1569.84 1194.95 1567.26 1196.6 1565.6C1198.47 1563.73 1201.58 1564.02 1204 1564L1219 1564L1282 1564L1278.31 1572.17C1277.67 1574.67 1278.07 1577.44 1277.83 1580C1277.27 1585.83 1276.75 1591.4 1275 1597C1278.61 1593.99 1278.52 1591.4 1279.37 1587L1280.9 1580C1281.34 1575.28 1280.37 1571.55 1285 1569C1284.9 1567.15 1284.98 1565.09 1283.82 1563.51C1280.74 1559.32 1271.5 1561 1267 1561L1216 1561L1202 1561C1199.96 1561 1197.32 1560.65 1195.43 1561.6C1193.39 1562.64 1193.17 1564.96 1193.04 1567L1193 1579L1193 1624L1193.02 1635C1193.1 1636.73 1193.11 1638.79 1194.6 1639.97C1196.06 1641.12 1198.27 1640.96 1200 1641L1213 1641L1263 1641z"/>
<path style="fill:#ffffff; stroke:#ffffff;" d="M1359 1641L1396 1641C1401.46 1641 1408.59 1642.21 1413.86 1640.68C1416.23 1639.99 1417.02 1637.96 1418.54 1636.24C1421.83 1632.51 1423.83 1631.26 1424 1626C1430.66 1624.61 1433.08 1617.33 1436.5 1612C1441.3 1604.52 1445.03 1596.41 1450.09 1589.09L1458.58 1578.96C1462.09 1574.3 1464.07 1568.68 1470 1567C1469.88 1565.51 1470 1563.82 1468.97 1562.58C1466.44 1559.53 1458.53 1561 1455 1561L1410 1561L1399 1561C1397.26 1561.04 1395.06 1560.88 1393.6 1562.03C1391.67 1563.55 1391.82 1566.86 1391.03 1569C1389.34 1573.59 1386.03 1577.56 1383.93 1582C1380.68 1588.86 1378.4 1595.99 1375.55 1603L1369.49 1615.99L1365.16 1629L1359 1641M1497 1641L1519 1641C1522.32 1641 1526.45 1641.62 1529.54 1640.15C1534.05 1637.99 1537 1633.01 1539.86 1629.17L1549.2 1618.46C1554.79 1611.98 1561 1606.33 1567.1 1600.37C1573.18 1594.43 1578.91 1588.06 1585.28 1582.42L1593.47 1574.11C1597.5 1570.13 1601.55 1566.92 1602 1561L1572 1561C1568.03 1561 1561.95 1559.89 1558.32 1561.74C1555.43 1563.21 1556.01 1567.43 1554.68 1570C1553.21 1572.85 1550.72 1574.91 1548.8 1577.42L1543.14 1585.96C1540.45 1589.65 1536.85 1592.1 1533.75 1595.36L1526.63 1604.73L1512.12 1621C1508.49 1625.22 1505.38 1629.38 1502.09 1633.83C1500.26 1636.31 1498.33 1638.21 1497 1641M1619 1561L1614.88 1567.46C1608.49 1577.85 1598.71 1585.6 1590.27 1594.37C1585.7 1599.12 1579.92 1603.58 1578 1610C1583.78 1607.36 1587.92 1602.65 1593.13 1599.19L1603.71 1593.42C1607.31 1590.96 1610.15 1587.75 1613.46 1584.98L1621.96 1578.96L1627.22 1573.5L1634.08 1567.23C1636.63 1565.1 1638.89 1564.19 1640 1561L1619 1561M908 1562C909.748 1570.8 917.03 1577.4 922.334 1584.27C927.63 1591.13 931.9 1598.8 936.672 1606L948.012 1621.58C950.677 1625.36 953.013 1630.15 955.145 1634.28C956.299 1636.52 956.726 1639.09 959.228 1640.26C963.739 1642.36 971.121 1641 976 1641L999 1641C1004.72 1641 1010.41 1641.33 1016 1640C1013.27 1629.45 1007.16 1620.62 1002.88 1610.71L1001.12 1605L996.88 1595.72L995.46 1590.28C994.198 1586.63 991.911 1583.29 990.089 1579.91C987.414 1574.94 986.931 1566.54 981.701 1563.32C979.459 1561.94 976.532 1562.04 974 1562L960 1562L908 1562z"/>
<path style="fill:#cdcbc9; stroke:#cdcbc9;" d="M1097 1574L1097 1564L1179 1564L1179 1640L1113 1640L1113 1636C1108.66 1633.61 1109.55 1630.57 1108.74 1626.17L1107.13 1619.96L1106.7 1613.17L1104.54 1607.91C1103.78 1605.38 1104 1602.61 1104 1600C1101.6 1605.72 1102.87 1614.81 1104.46 1620.71L1106.83 1629C1107.35 1632.98 1108.07 1639.42 1112.3 1641.4C1115.51 1642.9 1120.54 1642 1124 1642L1151 1642L1171 1642C1173.54 1642 1177.25 1642.52 1179.4 1640.82C1182.21 1638.59 1181 1632.14 1181 1629L1181 1597L1181 1572C1181 1569.1 1181.82 1564.34 1178.68 1562.74C1176.73 1561.75 1174.12 1562.01 1172 1562L1159 1562L1115 1562L1103 1562C1100.92 1562 1098.25 1561.65 1096.32 1562.6C1091.79 1564.83 1094.48 1571.53 1097 1574z"/>
<path style="fill:#ffffff; stroke:#ffffff;" d="M1362 1598C1365.94 1596.59 1367.49 1592.85 1368.98 1589.09L1375.48 1573C1377.22 1569.2 1379.4 1566.2 1380 1562L1321 1562L1305 1562C1302.98 1562.01 1300.32 1561.72 1298.6 1563.03C1297.37 1563.96 1297.13 1565.51 1296.47 1566.81L1293.58 1571.38C1292.62 1573.77 1293.19 1576.5 1292.78 1579L1290.49 1586L1289.59 1592.96L1287.49 1598.29L1286.46 1604L1284.3 1610L1283.7 1617.96L1281.3 1624.17L1280.7 1629.91C1279.94 1633.29 1276.37 1637.14 1279.6 1640.4C1281.66 1642.47 1285.35 1641.99 1288 1642L1308 1642L1333 1642C1336.59 1642 1341.58 1642.85 1344.81 1640.97C1348.94 1638.57 1349.08 1633.09 1350.35 1629C1351.85 1624.14 1353.71 1619.51 1356.09 1615.01C1359.22 1609.13 1361.92 1604.87 1362 1598M1461 1603C1453.81 1604.17 1451.07 1611.04 1447.63 1616.83L1442.96 1623.04L1438.44 1631.99C1436.63 1635.19 1434.07 1637.45 1433 1641L1464 1641C1468.38 1641 1474.49 1642.08 1478.54 1640.15C1483.36 1637.84 1484.45 1632.61 1487.68 1628.89L1493.99 1621.92L1500.25 1613.28L1509.42 1603.58L1514.44 1595.89L1523.77 1586.7L1530.05 1579.29C1533.64 1575.73 1538.92 1572.71 1541.06 1567.99C1541.94 1566.06 1541.93 1564.07 1542 1562C1528.78 1563.67 1515.32 1563 1502 1563C1496.9 1563 1488.76 1561.49 1484.22 1564.18C1481.68 1565.69 1480.33 1568.89 1478.77 1571.29L1469.34 1584.82C1464.92 1590.99 1461.09 1595 1461 1603M1097 1564C1097 1570.27 1095.89 1577.71 1097.3 1583.83L1099.46 1589.09L1100.58 1596L1103.42 1602L1104.54 1608.83L1106.86 1615.04L1107.26 1621.83L1108.74 1627.09C1109.48 1631.23 1108.41 1634.48 1113 1636L1113 1640L1179 1640L1179 1564L1097 1564M1195 1640L1265 1640C1265.05 1635.95 1266.23 1633.45 1267.46 1629.71L1268.58 1624.09L1271.69 1617.91L1272.26 1611L1274.41 1599L1276.73 1592C1277.84 1586.13 1277.23 1579.92 1278.15 1574.04C1278.72 1570.36 1281.42 1567.75 1282 1564L1218 1564L1202 1564C1200.02 1564.04 1197.41 1563.86 1196.03 1565.6C1194.7 1567.28 1195.01 1570.01 1195 1572L1195 1586L1195 1640z"/>
<path style="fill:#3d3b39; stroke:#3d3b39;" d="M1251 1679C1256.27 1677.25 1256.2 1669.79 1258.45 1665.17C1259.64 1662.75 1261.58 1660.8 1261.8 1657.99C1262.02 1655.09 1260.74 1652.17 1257.81 1651.32C1253.12 1649.95 1246.86 1651 1242 1651L1208 1651C1203.63 1651 1194.96 1649.4 1192.03 1653.57C1190.3 1656.03 1191 1660.17 1191 1663L1191 1685L1191 1702C1191.01 1704.55 1190.56 1707.99 1192.32 1710.11C1193.94 1712.05 1196.71 1711.96 1199 1712L1214 1712L1233 1712C1235.77 1712 1239.3 1712.48 1241.77 1710.97C1244.17 1709.51 1244.74 1706.66 1245.84 1704.29C1248.15 1699.28 1248.31 1694.39 1249.19 1689C1249.75 1685.58 1250.82 1682.49 1251 1679z"/>
<path style="fill:#ffffff; stroke:#ffffff;" d="M913 1653C914.559 1657.5 919.934 1659.67 923.83 1662.12L939.87 1673.97L946.589 1679.97L952.565 1683.41L960.464 1690.53L967.675 1695.24L973.654 1701.04C977.35 1704.33 982.351 1707.45 987 1709.16C989.873 1710.21 992.992 1710 996 1710L1010 1710C1007.95 1705.76 1004.18 1702.68 1000.87 1699.37C995.762 1694.26 990.696 1689.17 985.286 1684.38C981.965 1681.44 979.463 1678.9 975 1678L975 1673C970.795 1671.06 967.875 1667.62 964.627 1664.37C961.132 1660.88 957.325 1657.88 956 1653L913 1653M1047 1661C1047.44 1666.97 1051.14 1669.74 1054.88 1674.04L1061.5 1683.17L1074.46 1702.42C1076.07 1704.56 1076.84 1707.53 1079.23 1708.97C1082.59 1711.01 1088.23 1710 1092 1710L1122 1710C1121.44 1706.08 1119.58 1702.75 1118.35 1699C1116.68 1693.94 1115.65 1689.01 1113.47 1684.09L1110.27 1677.91L1105.48 1661.83C1104.61 1659.23 1104.37 1656.79 1102.14 1654.89C1098.57 1651.86 1092.34 1653 1088 1653L1056 1653C1052.12 1653 1045.88 1651.83 1042.32 1653.6C1040.08 1654.72 1040.1 1657.48 1041.74 1659.14C1043.14 1660.56 1045.17 1660.7 1047 1661M1365 1710L1380 1710C1382.9 1710 1386.15 1710.34 1388.91 1709.27C1391.91 1708.12 1393.83 1705.38 1396.3 1703.47L1404.74 1698.93L1411.29 1692.54L1431.26 1678.79L1441.44 1669.8C1444.94 1667.05 1448.62 1663.58 1452.43 1661.29C1456.8 1658.65 1461.24 1658.42 1463 1653L1433 1653C1428.76 1653 1422.96 1652.03 1419.11 1654.18C1415.61 1656.13 1413.96 1660.68 1411.25 1663.54C1404.03 1671.11 1396.49 1678.63 1388.83 1685.75L1377 1696.74C1372.72 1700.38 1366.71 1704.49 1365 1710M873 1654C877.803 1662.17 887.885 1664.3 895.911 1667.76L902.089 1671.34L907.871 1673.79L912.441 1677.08L917.425 1679.6C922.311 1682.43 926.323 1685.03 932 1686C926.223 1678.15 917.108 1673.41 909.46 1667.66C903.557 1663.23 898.373 1656.56 890.911 1654.55C885.366 1653.06 878.705 1654 873 1654M973 1654C974.343 1657.83 976.443 1658.92 979.41 1661.46L987.826 1669.3C997.788 1677.68 1006.83 1687.46 1015.96 1696.72L1024.71 1704.95C1026.45 1706.56 1028.02 1708.57 1030.3 1709.44C1033.48 1710.64 1037.66 1710 1041 1710L1063 1710C1062.5 1705.58 1060.39 1703.44 1057.9 1699.91C1053.66 1693.92 1049.37 1688.23 1044.79 1682.54L1040.25 1675.04L1034.33 1668.08C1031.4 1663.72 1028.8 1658.63 1024.23 1655.72C1019.72 1652.85 1013.12 1654 1008 1654L973 1654M1116 1654C1116.62 1658.51 1118.53 1661.84 1120.18 1666L1124.86 1679L1129.51 1690.17C1130.93 1695.04 1131.27 1699.6 1133.59 1704.28C1134.37 1705.86 1135.07 1707.91 1136.56 1708.97C1138.57 1710.41 1141.67 1710 1144 1710L1160 1710L1173 1710C1174.73 1709.96 1176.94 1710.12 1178.4 1708.97C1181.22 1706.74 1180 1700.15 1180 1697L1180 1666C1180 1663.02 1181.07 1657.15 1178.4 1655.03C1176.94 1653.88 1174.73 1654.04 1173 1654L1161 1654L1116 1654M1194 1710L1242 1710C1242.05 1705.98 1243.23 1703.54 1244.46 1699.83L1248.99 1684C1250.27 1680.73 1250.88 1678.72 1254 1677C1254.05 1672.74 1254.81 1668.98 1256.38 1665C1257.9 1661.14 1259.72 1658.22 1260 1654L1213 1654L1201 1654.02C1199.12 1654.1 1197.03 1654.18 1195.6 1655.6C1192.59 1658.61 1194 1666.12 1194 1670L1194 1710M1299 1709C1300.1 1705.4 1302.81 1703.25 1304.63 1699.99L1312.29 1686.06C1313.86 1683.65 1316.27 1682.53 1318.12 1680.46C1321.98 1676.14 1324.31 1670.8 1327.52 1666.09C1330.28 1662.03 1333.68 1658.85 1335 1654L1291 1654L1280 1654.02C1278.2 1654.07 1276.11 1654.04 1274.58 1655.18C1273.33 1656.11 1272.89 1657.67 1272.22 1659C1270.71 1662.02 1269.59 1664.66 1268.52 1667.84C1265.44 1677.04 1263.63 1686.79 1259.27 1695.58C1257.82 1698.49 1253.26 1706.2 1256.62 1708.97C1259.15 1711.07 1264.94 1710 1268 1710C1278.25 1710 1288.89 1710.88 1299 1709M1312 1710L1334 1710C1337.66 1710 1342.19 1710.7 1345.7 1709.49C1350.24 1707.92 1353.95 1702.66 1357.29 1699.42L1381.13 1675.37L1395 1662.04C1397.75 1659.44 1400.77 1657.63 1402 1654L1367 1654C1362.76 1654 1356.21 1652.78 1352.3 1654.6C1348.47 1656.39 1347.57 1662.42 1344.63 1665.32L1340.85 1668.49L1336.6 1675L1327.54 1687L1324.44 1692.71L1317.15 1702.9C1315.14 1705.4 1313.01 1706.92 1312 1710M1427 1698C1433.36 1696.62 1439.17 1692.76 1445 1689.92L1454.39 1685.88L1486.04 1667.62C1493.15 1663.65 1502.76 1661.44 1507 1654L1489 1654C1486.18 1654 1482.88 1653.58 1480.17 1654.56C1476.3 1655.97 1473.86 1660.13 1471.28 1663.08C1468.36 1666.41 1464.71 1669.45 1461.34 1672.32L1453.71 1676.94L1436 1689.63C1432.36 1692.29 1429.49 1694.14 1427 1698z"/>
<path style="fill:#e3e1e1; stroke:#e3e1e1;" d="M1016 1722C1017.92 1725.29 1020.48 1725.87 1024 1727.07C1029.29 1728.88 1034.38 1730.74 1040 1731C1035.16 1723.83 1023.99 1722 1016 1722z"/>
<path style="fill:#ffffff; stroke:#ffffff;" d="M1232 1752C1235.87 1752 1240.96 1752.85 1244.54 1751.15C1247.28 1749.84 1249.16 1747.11 1251.46 1745.22L1260.42 1739.07C1267.11 1733.39 1271.72 1727.14 1281 1726L1281 1722L1258 1722C1255.16 1722 1251.05 1721.29 1248.43 1722.6C1245.89 1723.88 1245.51 1727.75 1244.11 1730C1239.7 1737.12 1232.48 1743.21 1232 1752M1331 1734C1337.46 1733.01 1342.95 1729.49 1349 1727.36C1352.75 1726.03 1356.76 1726.25 1358 1722C1354.39 1722 1350.56 1721.66 1347 1722.38C1340.69 1723.67 1334.47 1728.7 1331 1734M1049 1723L1049 1725C1053.85 1725.72 1057.58 1727.92 1062.09 1729.62L1069 1731.93L1084 1740.39L1089.63 1742.94L1094.21 1746.53C1099.56 1749.88 1106.7 1752.81 1113 1753C1111.64 1746.77 1104.23 1745.98 1099.59 1742.37L1088.51 1734.08C1084.38 1730.5 1080.26 1725.77 1074.96 1723.92C1071.77 1722.8 1068.33 1723 1065 1723L1049 1723M1097 1723C1098.42 1725.48 1100.34 1726.46 1102.32 1728.45L1107.04 1733.41C1111.4 1736.57 1116.39 1739.11 1119 1744C1124.79 1744.89 1127.24 1749.66 1132.3 1751.95C1136.37 1753.79 1141.64 1753 1146 1753C1145.14 1748.81 1142.55 1746.49 1140.32 1742.96C1137.36 1738.26 1135.31 1733.47 1131.86 1729.05C1130.18 1726.9 1128.49 1724.54 1125.83 1723.56C1122.85 1722.48 1119.11 1723 1116 1723L1097 1723M1145 1723C1145.6 1726.82 1147.75 1728.82 1149.75 1732.02L1154.89 1740.09C1157.54 1744.38 1159.97 1749.46 1165.09 1751.4C1169.4 1753.03 1175.44 1752 1180 1752L1180 1733C1180 1730.53 1180.62 1726.69 1178.97 1724.6C1177.11 1722.25 1172.62 1723 1170 1723L1145 1723M1229 1727L1232 1727L1232 1723L1207 1723C1203.6 1723 1198.45 1722.06 1195.32 1723.6C1192.9 1724.79 1193.05 1727.69 1193 1730L1193 1746C1193.04 1747.98 1192.86 1750.59 1194.6 1751.97C1196.69 1753.62 1200.53 1753 1203 1753C1205.82 1753 1208.9 1753.29 1211.57 1752.23C1215.27 1750.77 1216.61 1747.68 1218.7 1744.61C1220.93 1741.35 1222.79 1738.66 1224.54 1735.13C1226.11 1731.98 1228.4 1730.63 1229 1727M1266 1752C1272.48 1751.57 1276.47 1747.44 1282 1744.54L1288.96 1741.87L1296.09 1737.6L1304.58 1734.13C1310.2 1731.09 1315.53 1726.86 1322 1726L1322 1723L1308 1723C1305.42 1723 1302.53 1722.67 1300.01 1723.32C1295.17 1724.56 1293.36 1729.67 1289.83 1732.69C1287.34 1734.81 1284.13 1735.01 1281.48 1736.77C1279.2 1738.28 1277.76 1740.72 1275.74 1742.52C1272.17 1745.72 1268.17 1747.55 1266 1752z"/>
<path style="fill:#615d5b; stroke:#615d5b;" d="M1299 1783C1301.05 1785.9 1303.6 1785.83 1307 1786.28C1310.7 1786.77 1314.27 1787 1318 1787L1371 1787C1386.56 1787 1402.48 1787.97 1418 1786.91C1426.47 1786.33 1434.58 1783.67 1443 1783.09C1452.63 1782.43 1462.38 1783.68 1472 1782.91L1481 1781.18L1500 1779.82L1508 1778.18L1524 1776.82C1531.46 1775.92 1538.64 1773.59 1546 1772.32L1561 1770.68C1567.5 1769.59 1573.65 1767.37 1580 1765.76L1595 1763C1591.51 1761.58 1588.57 1762.76 1585 1763.49L1569 1766.71C1550.15 1770.62 1531.05 1773.37 1512 1775.71L1501 1776.29L1488.96 1778.91C1482.95 1779.89 1477.02 1779.59 1471 1780.17L1459 1781.91L1433 1782.09L1408 1784.91C1396.11 1785.73 1383.92 1785 1372 1785C1356.06 1785 1339.92 1785.73 1324 1784.96C1318.64 1784.7 1314.01 1781.97 1308.83 1781.3C1305.54 1780.88 1302.16 1782.28 1299 1783z"/>
</svg>
